<svg width="360" height="360" viewBox="0 0 360 360" fill="none" xmlns="http://www.w3.org/2000/svg">
<path d="M186.453 340.2C274.929 340.2 346.653 268.476 346.653 180C346.653 91.524 274.929 19.8 186.453 19.8C97.9769 19.8 26.2529 91.524 26.2529 180C26.2529 268.476 97.9769 340.2 186.453 340.2Z" fill="#EAE2FB"/>
<path d="M26.2526 205.415C26.2526 205.415 33.9246 299.945 13.5 340.2H184.808C200.118 340.2 214.95 338.016 228.965 333.957C266.677 323.04 278.134 274.939 250.378 247.136L119.272 115.968C90.8681 87.5505 43.0288 100.719 31.9129 139.37C28.0598 152.811 25.6047 157.962 26.2526 205.415Z" fill="url(#paint0_linear_1448_14536)"/>
<path d="M74.2282 293.736C136.15 355.687 236.568 355.687 298.49 293.736C316.494 275.724 329.28 254.437 336.816 231.785C345.034 207.086 326.825 181.535 300.775 181.535H71.9436C45.9269 181.535 27.6846 207.086 35.9022 231.785C43.4378 254.437 56.2245 275.69 74.2282 293.736Z" fill="url(#paint1_linear_1448_14536)"/>
<defs>
<linearGradient id="paint0_linear_1448_14536" x1="13.5" y1="220.444" x2="265.744" y2="220.444" gradientUnits="userSpaceOnUse">
<stop stop-color="#713DE3"/>
<stop offset="1" stop-color="#4F46DD"/>
</linearGradient>
<linearGradient id="paint1_linear_1448_14536" x1="33.9116" y1="260.867" x2="338.809" y2="260.867" gradientUnits="userSpaceOnUse">
<stop stop-color="#713DE3"/>
<stop offset="1" stop-color="#FF7395"/>
</linearGradient>
</defs>
</svg>
