<svg width="28" height="28" viewBox="0 0 28 28" fill="none" xmlns="http://www.w3.org/2000/svg">
<path fill-rule="evenodd" clip-rule="evenodd" d="M10.2104 6.1828C9.4013 7.10526 8.94444 8.44266 8.94444 10.0333V12.0555C8.94444 13.0594 8.49261 13.8935 8.01363 14.529C7.57558 15.1102 7.03006 15.6321 6.60167 16.0418C6.5657 16.0762 6.53055 16.1099 6.49636 16.1427C6.09562 16.5271 5.83333 17.0492 5.83333 17.6555C5.83333 18.2682 6.29258 18.6666 6.74074 18.6666H21.2593C21.7074 18.6666 22.1667 18.2682 22.1667 17.6555C22.1667 17.0492 21.9044 16.5271 21.5036 16.1427C21.4694 16.1099 21.4343 16.0762 21.3983 16.0418C20.9699 15.6321 20.4244 15.1102 19.9864 14.529C19.5074 13.8935 19.0556 13.0594 19.0556 12.0555V10.0333C19.0556 8.44266 18.5987 7.10526 17.7896 6.1828C16.9998 5.28238 15.7792 4.66659 14 4.66659C12.2208 4.66659 11.0002 5.28238 10.2104 6.1828ZM8.45626 4.64417C9.74054 3.17999 11.6311 2.33325 14 2.33325C16.3689 2.33325 18.2595 3.17999 19.5437 4.64417C20.8087 6.08632 21.3889 8.01558 21.3889 10.0333V12.0555C21.3889 12.3402 21.5166 12.6827 21.8497 13.1246C22.169 13.5483 22.5835 13.9456 23.0414 14.3845C23.0671 14.4092 23.093 14.434 23.119 14.4589C23.9167 15.2242 24.5 16.3328 24.5 17.6555C24.5 19.4483 23.1021 20.9999 21.2593 20.9999H6.74074C4.89794 20.9999 3.5 19.4483 3.5 17.6555C3.5 16.3328 4.0833 15.2242 4.881 14.4589C4.907 14.434 4.93286 14.4092 4.95859 14.3845C5.41648 13.9456 5.83098 13.5483 6.15027 13.1246C6.48336 12.6827 6.61111 12.3402 6.61111 12.0555V10.0333C6.61111 8.01558 7.1913 6.08632 8.45626 4.64417Z" fill="black"/>
<path fill-rule="evenodd" clip-rule="evenodd" d="M11.0169 22.3643C11.552 22.0054 12.2767 22.1483 12.6356 22.6835C12.7516 22.8563 12.9317 23.0195 13.1739 23.1401C13.4164 23.2609 13.7018 23.3291 14 23.3291C14.2982 23.3291 14.5836 23.2609 14.8261 23.1401C15.0683 23.0195 15.2484 22.8563 15.3644 22.6835C15.7233 22.1483 16.448 22.0054 16.9831 22.3643C17.5183 22.7232 17.6612 23.4479 17.3023 23.983C16.944 24.5173 16.4434 24.9412 15.8666 25.2286C15.2901 25.5158 14.647 25.6625 14 25.6625C13.353 25.6625 12.7099 25.5158 12.1334 25.2286C11.5566 24.9412 11.056 24.5173 10.6977 23.983C10.3388 23.4479 10.4817 22.7232 11.0169 22.3643Z" fill="black"/>
</svg>
