<svg width="44" height="44" viewBox="0 0 44 44" fill="none" xmlns="http://www.w3.org/2000/svg">
<path fill-rule="evenodd" clip-rule="evenodd" d="M18.2104 14.1828C17.4013 15.1053 16.9444 16.4427 16.9444 18.0333V20.0555C16.9444 21.0594 16.4926 21.8935 16.0136 22.529C15.5756 23.1102 15.0301 23.6321 14.6017 24.0418C14.5657 24.0762 14.5305 24.1099 14.4964 24.1427C14.0956 24.5271 13.8333 25.0492 13.8333 25.6555C13.8333 26.2682 14.2926 26.6666 14.7407 26.6666H29.2593C29.7074 26.6666 30.1667 26.2682 30.1667 25.6555C30.1667 25.0492 29.9044 24.5271 29.5036 24.1427C29.4694 24.1099 29.4343 24.0762 29.3983 24.0418C28.9699 23.6321 28.4244 23.1102 27.9864 22.529C27.5074 21.8935 27.0556 21.0594 27.0556 20.0555V18.0333C27.0556 16.4427 26.5987 15.1053 25.7896 14.1828C24.9998 13.2824 23.7792 12.6666 22 12.6666C20.2208 12.6666 19.0002 13.2824 18.2104 14.1828ZM16.4563 12.6442C17.7405 11.18 19.6311 10.3333 22 10.3333C24.3689 10.3333 26.2595 11.18 27.5437 12.6442C28.8087 14.0863 29.3889 16.0156 29.3889 18.0333V20.0555C29.3889 20.3402 29.5166 20.6827 29.8497 21.1246C30.169 21.5483 30.5835 21.9456 31.0414 22.3845C31.0671 22.4092 31.093 22.434 31.119 22.4589C31.9167 23.2242 32.5 24.3328 32.5 25.6555C32.5 27.4483 31.1021 28.9999 29.2593 28.9999H14.7407C12.8979 28.9999 11.5 27.4483 11.5 25.6555C11.5 24.3328 12.0833 23.2242 12.881 22.4589C12.907 22.434 12.9329 22.4092 12.9586 22.3845C13.4165 21.9456 13.831 21.5483 14.1503 21.1246C14.4834 20.6827 14.6111 20.3402 14.6111 20.0555V18.0333C14.6111 16.0156 15.1913 14.0863 16.4563 12.6442Z" fill="black"/>
<path fill-rule="evenodd" clip-rule="evenodd" d="M19.0169 30.3643C19.552 30.0054 20.2767 30.1483 20.6356 30.6835C20.7516 30.8563 20.9317 31.0195 21.1739 31.1401C21.4164 31.2609 21.7018 31.3291 22 31.3291C22.2982 31.3291 22.5836 31.2609 22.8261 31.1401C23.0683 31.0195 23.2484 30.8563 23.3644 30.6835C23.7233 30.1483 24.448 30.0054 24.9831 30.3643C25.5183 30.7232 25.6612 31.4479 25.3023 31.983C24.944 32.5173 24.4434 32.9412 23.8666 33.2286C23.2901 33.5158 22.647 33.6625 22 33.6625C21.353 33.6625 20.7099 33.5158 20.1334 33.2286C19.5566 32.9412 19.056 32.5173 18.6977 31.983C18.3388 31.4479 18.4817 30.7232 19.0169 30.3643Z" fill="black"/>
<rect x="26" y="8" width="8" height="8" rx="4" fill="#713DE3"/>
</svg>
