<svg width="24" height="24" viewBox="0 0 24 24" fill="none" xmlns="http://www.w3.org/2000/svg">
<path d="M12 5.62693C10.8919 4.67405 9.28538 4.5323 7.82288 4.67855C6.11962 4.85068 4.40062 5.43455 3.32963 5.92168C3.23136 5.96637 3.14802 6.0384 3.08957 6.12916C3.03113 6.21993 3.00003 6.3256 3 6.43355V18.8086C3.00003 18.9027 3.02367 18.9953 3.06876 19.0779C3.11385 19.1605 3.17894 19.2305 3.25809 19.2814C3.33723 19.3323 3.42789 19.3626 3.52176 19.3694C3.61562 19.3762 3.7097 19.3594 3.79537 19.3204C4.78763 18.8704 6.38625 18.3293 7.93538 18.1729C9.5205 18.0132 10.8491 18.2708 11.5612 19.1596C11.614 19.2252 11.6807 19.2783 11.7567 19.3147C11.8326 19.3511 11.9158 19.37 12 19.37C12.0842 19.37 12.1674 19.3511 12.2433 19.3147C12.3193 19.2783 12.386 19.2252 12.4388 19.1596C13.1509 18.2708 14.4795 18.0132 16.0635 18.1729C17.6138 18.3293 19.2135 18.8704 20.2046 19.3204C20.2903 19.3594 20.3844 19.3762 20.4782 19.3694C20.5721 19.3626 20.6628 19.3323 20.7419 19.2814C20.8211 19.2305 20.8862 19.1605 20.9312 19.0779C20.9763 18.9953 21 18.9027 21 18.8086V6.43355C21 6.3256 20.9689 6.21993 20.9104 6.12916C20.852 6.0384 20.7686 5.96637 20.6704 5.92168C19.5994 5.43455 17.8804 4.85068 16.1771 4.67855C14.7146 4.53118 13.1081 4.67405 12 5.62693Z" fill="black"/>
</svg>
