<svg width="24" height="24" viewBox="0 0 24 24" fill="none" xmlns="http://www.w3.org/2000/svg">
<path fill-rule="evenodd" clip-rule="evenodd" d="M12 7C11.7169 7 11.4353 7.02323 11.1557 7.06728C10.6101 7.1532 10.0982 6.7806 10.0122 6.23504C9.92632 5.68948 10.2989 5.17756 10.8445 5.09163C11.2214 5.03226 11.6071 5 12 5C14.1099 5 16.0059 5.92747 17.5089 7.00885C19.0198 8.0959 20.2201 9.40025 20.9599 10.2985C21.7805 11.2948 21.7805 12.7052 20.9599 13.7015C20.6286 14.1037 20.2083 14.5833 19.7123 15.0866C19.3246 15.4799 18.6915 15.4845 18.2981 15.0968C17.9048 14.7092 17.9002 14.076 18.2878 13.6827C18.7354 13.2286 19.1159 12.7945 19.4161 12.43C19.6284 12.1722 19.6284 11.8278 19.4161 11.57C18.7359 10.7442 17.66 9.58138 16.3409 8.63233C15.0138 7.6776 13.5258 7 12 7ZM7.90753 8.45823C6.47663 9.43461 5.30773 10.6912 4.58385 11.57C4.37155 11.8278 4.37155 12.1722 4.58385 12.43C5.26408 13.2558 6.34001 14.4186 7.65913 15.3677C8.98615 16.3224 10.4742 17 12 17C13.317 17 14.6079 16.4956 15.7973 15.7366L16.8731 17.4227C15.4908 18.3046 13.8264 19 12 19C9.89007 19 7.99415 18.0725 6.4911 16.9912C4.98017 15.9041 3.77995 14.5998 3.04008 13.7015C2.21948 12.7052 2.21948 11.2948 3.04008 10.2985C3.82513 9.34539 5.13167 7.9311 6.78025 6.80619L7.90753 8.45823Z" fill="black"/>
<path fill-rule="evenodd" clip-rule="evenodd" d="M2.29289 2.29289C2.68342 1.90237 3.31658 1.90237 3.70711 2.29289L21.7071 20.2929C22.0976 20.6834 22.0976 21.3166 21.7071 21.7071C21.3166 22.0976 20.6834 22.0976 20.2929 21.7071L2.29289 3.70711C1.90237 3.31658 1.90237 2.68342 2.29289 2.29289Z" fill="black"/>
<path fill-rule="evenodd" clip-rule="evenodd" d="M8.8434 11.8105C9.37687 11.6676 9.92521 11.9842 10.0681 12.5176C10.159 12.8567 10.3375 13.166 10.5858 13.4142C10.834 13.6625 11.1433 13.841 11.4824 13.9319C12.0158 14.0748 12.3324 14.6231 12.1895 15.1566C12.0465 15.6901 11.4982 16.0066 10.9647 15.8637C10.2865 15.682 9.66807 15.3249 9.17157 14.8284C8.67508 14.3319 8.31803 13.7135 8.1363 13.0353C7.99335 12.5018 8.30994 11.9535 8.8434 11.8105Z" fill="black"/>
</svg>
