<svg width="98" height="64" viewBox="0 0 98 64" fill="none" xmlns="http://www.w3.org/2000/svg">
<g clip-path="url(#clip0_929_15191)">
<path d="M49.6812 35.9101C59.0204 35.9101 66.5912 28.3392 66.5912 19.0001C66.5912 9.66095 59.0204 2.09009 49.6812 2.09009C40.3421 2.09009 32.7712 9.66095 32.7712 19.0001C32.7712 28.3392 40.3421 35.9101 49.6812 35.9101Z" fill="#EAE2FB"/>
<path d="M32.7712 21.6827C32.7712 21.6827 33.581 31.6609 31.425 35.91H49.5075C51.1236 35.91 52.6892 35.6796 54.1685 35.2511C58.1493 34.0988 59.3586 29.0214 56.4288 26.0867L42.5899 12.2411C39.5918 9.24149 34.542 10.6314 33.3686 14.7113C32.9619 16.1301 32.7028 16.6738 32.7712 21.6827Z" fill="url(#paint0_linear_929_15191)"/>
<path d="M37.8352 31.0053C44.3714 37.5447 54.9711 37.5447 61.5073 31.0053C63.4077 29.1041 64.7574 26.8571 65.5528 24.466C66.4202 21.859 64.4983 19.1619 61.7485 19.1619H37.5941C34.8479 19.1619 32.9223 21.859 33.7897 24.466C34.5851 26.8571 35.9348 29.1005 37.8352 31.0053Z" fill="url(#paint1_linear_929_15191)"/>
<path d="M97.0429 46.5268C98.0715 47.2644 98.3089 48.7132 97.5704 49.7406L95.3022 52.8225L94.6692 53.7182L94.7219 53.6918L93.1131 55.9309H93.0867C93.0603 55.9309 93.0603 55.9309 93.0603 55.9309L91.8207 57.6168V61.6998C91.8207 62.9642 90.7921 63.9915 89.4998 63.9915C88.2338 63.9915 87.2052 62.9642 87.2052 61.6998V57.6168L85.3326 55.0353L81.4555 49.7406C80.717 48.7132 80.928 47.2644 81.9567 46.5268C82.9853 45.7629 84.4359 46.0001 85.1743 47.0274L86.7568 49.1874L88.603 51.7162L89.3943 52.8225L89.4998 52.9806L91.135 50.7152L93.8516 47.0274C94.59 46.0001 96.0143 45.7629 97.0429 46.5268Z" fill="#351C68"/>
<path d="M80.9386 59.329C82.231 59.329 83.2596 60.3826 83.2596 61.6734C83.2596 62.9641 82.231 63.9915 80.9386 63.9915H73.0263C72.0768 63.9915 71.1801 63.412 70.8372 62.5163C70.7317 62.2266 70.7053 61.9632 70.7053 61.6734V48.3444C70.7053 47.0537 71.7339 46 73.0263 46C74.3186 46 75.3736 47.0537 75.3736 48.3444V59.329H80.9386Z" fill="#351C68"/>
<path d="M66.9238 55.0353C67.293 55.5358 67.5831 56.089 67.7677 56.6949C67.926 57.2217 68.0315 57.8012 68.0315 58.3808C68.0315 58.7232 67.9787 59.092 67.926 59.4081C67.6622 60.7515 66.9501 61.9106 65.9479 62.7272C64.972 63.5174 63.7324 63.9916 62.3873 63.9916H54.6068C53.3409 63.9916 52.3123 62.9642 52.3123 61.6998V48.3709C52.3123 47.5806 52.7079 46.8694 53.3672 46.4479C53.7101 46.2108 54.1321 46.0791 54.6068 46.0791H62.3873C63.9962 46.0791 65.4732 46.764 66.5018 47.8704C67.4513 48.8714 68.0315 50.2148 68.0315 51.7163C68.0315 51.8743 68.0051 52.0324 68.0051 52.1904C67.8996 53.2441 67.5304 54.2187 66.9238 55.0353ZM56.9014 57.3534V59.4081H62.3873C62.9676 59.4081 63.4159 58.9339 63.4159 58.3808C63.4159 57.8012 62.9676 57.3534 62.3873 57.3534H56.9014ZM56.9014 50.6889V52.7436H62.3346C62.361 52.7436 62.361 52.7436 62.3873 52.7436C62.9676 52.7436 63.4159 52.2695 63.4159 51.7163C63.4159 51.2158 63.0731 50.7943 62.5983 50.6889C62.5192 50.6889 62.4665 50.6889 62.3873 50.6889H56.9014Z" fill="#351C68"/>
<path d="M48.4562 59.2764L49.2475 60.3037C50.0387 61.3047 49.8541 62.7535 48.8518 63.5174C48.4298 63.8599 47.9287 63.9916 47.4276 63.9916C46.7419 63.9916 46.0561 63.7018 45.6078 63.1223L42.0208 58.4598H39.4098V61.6998C39.4098 62.9642 38.3811 63.9916 37.1152 63.9916C35.8492 63.9916 34.8206 62.9642 34.8206 61.6998V48.3709C34.8206 48.2918 34.8206 48.2391 34.8206 48.1601C34.8206 48.0548 34.847 47.9494 34.8733 47.844V47.8177C34.8997 47.765 34.8997 47.7123 34.9261 47.6596C34.9525 47.6069 34.9525 47.5543 34.9788 47.5016C34.9788 47.5016 34.9788 47.5016 34.9788 47.4752C35.0052 47.4226 35.0316 47.3699 35.058 47.3435C35.058 47.3435 35.058 47.3435 35.058 47.3172C35.1107 47.2118 35.1898 47.1064 35.2689 47.0274C35.2689 47.0011 35.2953 46.9747 35.3217 46.9484C35.3217 46.9221 35.3481 46.9221 35.3481 46.8957C35.3744 46.8694 35.4008 46.843 35.4008 46.843C35.6909 46.5269 36.0602 46.2899 36.4558 46.1845C36.6668 46.1055 36.8778 46.0791 37.1152 46.0791H43.5242C46.7155 46.0791 49.353 48.5026 49.6958 51.5846C49.6958 51.7163 49.7222 51.848 49.7222 51.9797C49.7222 52.0587 49.7222 52.1377 49.7222 52.2431V52.2694C49.7222 52.2958 49.7222 52.3221 49.7222 52.3748C49.7222 52.4012 49.7222 52.4538 49.7222 52.5065C49.7222 52.5592 49.7222 52.6119 49.7222 52.6646C49.6958 53.0597 49.6431 53.4285 49.5376 53.7973C49.353 54.5612 49.0101 55.2988 48.5353 55.931C48.4826 56.01 48.4035 56.1154 48.3243 56.1944C48.1397 56.4315 47.9024 56.6685 47.665 56.8793C47.6122 56.932 47.5331 56.9846 47.4804 57.0373C47.3485 57.169 47.1902 57.2744 47.032 57.3798L47.0056 57.4061L47.7705 58.4071L47.9815 58.6442L48.4562 59.2764ZM43.5242 53.8763C43.7352 53.8763 43.9462 53.8236 44.1308 53.7709C44.1572 53.7446 44.2099 53.7183 44.2627 53.6919C44.5528 53.5339 44.8165 53.2968 44.9748 52.9807C45.0012 52.928 45.0012 52.8753 45.0275 52.8226C45.0539 52.7699 45.0803 52.7173 45.0803 52.6646C45.1067 52.5329 45.133 52.4012 45.133 52.2694C45.133 51.8216 44.9484 51.4265 44.6319 51.1368C44.6055 51.0841 44.5792 51.0577 44.5264 51.0314C44.5264 51.0314 44.5264 51.0314 44.5 51.005C44.4737 51.005 44.4473 50.9787 44.4209 50.9524C44.2627 50.847 44.078 50.768 43.8934 50.7153C43.8407 50.7153 43.7879 50.6889 43.7352 50.6889C43.6824 50.6889 43.6297 50.6889 43.5769 50.6889C43.5506 50.6889 43.5506 50.6889 43.5242 50.6889H39.4098V53.8763H43.1549C43.1549 53.8763 43.1549 53.8763 43.1813 53.8763C43.2077 53.8763 43.2341 53.8763 43.2341 53.8763H43.5242Z" fill="#351C68"/>
<path d="M30.0571 59.4081C31.3231 59.4081 32.3517 60.4354 32.3517 61.6998C32.3517 62.9642 31.3231 63.9916 30.0571 63.9916H21.1689C19.9029 63.9916 18.8743 62.9642 18.8743 61.6998V48.3709C18.8743 47.1064 19.9029 46.0791 21.1689 46.0791H30.0571C31.3231 46.0791 32.3517 47.1064 32.3517 48.3709C32.3517 49.6616 31.3231 50.6889 30.0571 50.6889H23.4635V52.7436H28.7647C29.0285 52.7436 29.2922 52.7963 29.5296 52.8753C29.556 52.8753 29.556 52.8753 29.556 52.9017C29.6087 52.9017 29.6615 52.928 29.7142 52.9543C30.1362 53.1387 30.4791 53.4548 30.7165 53.85C30.9275 54.1924 31.0593 54.6139 31.0593 55.0353C31.0593 55.1407 31.0593 55.2197 31.033 55.2988C30.9011 56.4578 29.9252 57.3534 28.7647 57.3534H23.4635V59.4081H30.0571Z" fill="#351C68"/>
<path d="M16.421 46.8693C17.0013 47.5542 17.1595 48.5025 16.7639 49.3454L10.5922 62.6744C9.98562 63.9652 8.32402 64.413 7.16354 63.57C6.63605 63.2013 6.74155 63.4383 4.26234 58.0646C4.2096 57.9592 4.15685 57.8275 4.07772 57.7222C4.02497 57.5641 3.94585 57.3797 3.86673 57.2217C3.81398 57.0899 3.76123 56.9846 3.70848 56.8792C3.62936 56.7212 3.55023 56.5368 3.47111 56.3787C3.39198 56.2207 3.33924 56.0626 3.26011 55.9046C3.23374 55.8782 3.23374 55.8782 3.23374 55.8519C3.20736 55.7729 3.15461 55.7202 3.12824 55.6411C3.07549 55.4831 2.99637 55.3514 2.91724 55.1933C2.86449 55.0616 2.81174 54.9299 2.73262 54.7982C2.49525 54.2977 2.25788 53.7445 1.99413 53.1914C1.46664 52.0587 0.886402 50.7679 0.227039 49.3454C0.0424169 48.9503 -0.0367068 48.5288 0.0160423 48.1074C0.0951659 47.3435 0.569908 46.6322 1.33477 46.2898C2.49525 45.763 3.86673 46.2634 4.39422 47.4225L4.60521 47.8966L6.34593 51.6108L6.50418 51.9533L6.53056 52.0323L7.63829 54.4031L7.71741 54.5611L8.48227 56.247L8.69327 55.8255L8.82514 55.5358L10.0384 52.9279L10.1702 52.6645L11.3307 50.1094L11.5153 49.7142L12.5967 47.4225V47.3961C12.6231 47.3698 12.6494 47.3171 12.6494 47.2908C12.6494 47.2908 12.6758 47.2908 12.6758 47.2644C12.6758 47.2381 12.7022 47.2118 12.7286 47.1854C12.7286 47.1591 12.7286 47.1591 12.7286 47.1591C12.7549 47.1327 12.7813 47.1064 12.8077 47.0537C12.8341 47.0274 12.8604 47.001 12.8868 46.9483C13.0451 46.7639 13.2297 46.5796 13.4407 46.4478L13.4671 46.4215C14.0209 46.0791 14.7067 45.9737 15.366 46.1844C15.366 46.1844 15.366 46.1844 15.3924 46.1844C15.4188 46.2108 15.4452 46.2108 15.4452 46.2108C15.4715 46.2108 15.4715 46.2371 15.4979 46.2371C15.5243 46.2371 15.5243 46.2371 15.5506 46.2634C15.577 46.2634 15.6298 46.2898 15.6561 46.2898C15.9463 46.4478 16.21 46.6322 16.421 46.8693Z" fill="#351C68"/>
</g>
<defs>
<linearGradient id="paint0_linear_929_15191" x1="31.425" y1="23.2691" x2="58.0508" y2="23.2691" gradientUnits="userSpaceOnUse">
<stop stop-color="#713DE3"/>
<stop offset="1" stop-color="#4F46DD"/>
</linearGradient>
<linearGradient id="paint1_linear_929_15191" x1="33.5796" y1="27.5358" x2="65.7632" y2="27.5358" gradientUnits="userSpaceOnUse">
<stop stop-color="#713DE3"/>
<stop offset="1" stop-color="#FF7395"/>
</linearGradient>
<clipPath id="clip0_929_15191">
<rect width="98" height="64" fill="white"/>
</clipPath>
</defs>
</svg>
