<svg width="186" height="178" viewBox="0 0 186 178" fill="none" xmlns="http://www.w3.org/2000/svg">
<path d="M96.0898 178C145.243 178 185.09 138.153 185.09 89C185.09 39.8467 145.243 0 96.0898 0C46.9365 0 7.08984 39.8467 7.08984 89C7.08984 138.153 46.9365 178 96.0898 178Z" fill="#EAE2FB"/>
<path d="M7.08478 103.118C7.08478 103.118 11.347 155.635 0 177.999H95.171C103.677 177.999 111.917 176.786 119.703 174.531C140.654 168.466 147.019 141.743 131.599 126.297L58.762 53.4254C42.9823 37.6382 16.4049 44.9538 10.2294 66.4267C8.08878 73.8939 6.72486 76.7557 7.08478 103.118Z" fill="url(#paint0_linear_762_5294)"/>
<path d="M33.736 152.188C68.137 186.605 123.925 186.605 158.326 152.188C168.328 142.181 175.432 130.355 179.618 117.77C184.183 104.049 174.068 89.8535 159.595 89.8535H32.4668C18.0131 89.8535 7.87841 104.049 12.4437 117.77C16.6302 130.355 23.7339 142.162 33.736 152.188Z" fill="url(#paint1_linear_762_5294)"/>
<defs>
<linearGradient id="paint0_linear_762_5294" x1="0" y1="111.468" x2="140.136" y2="111.468" gradientUnits="userSpaceOnUse">
<stop stop-color="#713DE3"/>
<stop offset="1" stop-color="#4F46DD"/>
</linearGradient>
<linearGradient id="paint1_linear_762_5294" x1="11.3379" y1="133.927" x2="180.725" y2="133.927" gradientUnits="userSpaceOnUse">
<stop stop-color="#713DE3"/>
<stop offset="1" stop-color="#FF7395"/>
</linearGradient>
</defs>
</svg>
