<svg width="36" height="34" viewBox="0 0 36 34" fill="none" xmlns="http://www.w3.org/2000/svg">
<path d="M18.2562 33.8202C27.5953 33.8202 35.1662 26.2494 35.1662 16.9102C35.1662 7.57111 27.5953 0.000244141 18.2562 0.000244141C8.91706 0.000244141 1.34619 7.57111 1.34619 16.9102C1.34619 26.2494 8.91706 33.8202 18.2562 33.8202Z" fill="#EAE2FB"/>
<path d="M1.34611 19.5929C1.34611 19.5929 2.15593 29.5711 0 33.8202H18.0825C19.6985 33.8202 21.2642 33.5897 22.7435 33.1612C26.7242 32.0089 27.9336 26.9316 25.0038 23.9968L11.1648 10.1512C8.16663 7.15164 3.11693 8.5416 1.94358 12.6215C1.53687 14.0402 1.27772 14.584 1.34611 19.5929Z" fill="url(#paint0_linear_762_5293)"/>
<path d="M6.41018 28.9155C12.9464 35.4548 23.5461 35.4548 30.0823 28.9155C31.9826 27.0142 33.3324 24.7672 34.1278 22.3762C34.9952 19.7691 33.0732 17.072 30.3234 17.072H6.16903C3.42282 17.072 1.49724 19.7691 2.36465 22.3762C3.16008 24.7672 4.50979 27.0106 6.41018 28.9155Z" fill="url(#paint1_linear_762_5293)"/>
<defs>
<linearGradient id="paint0_linear_762_5293" x1="0" y1="21.1793" x2="26.6258" y2="21.1793" gradientUnits="userSpaceOnUse">
<stop stop-color="#713DE3"/>
<stop offset="1" stop-color="#4F46DD"/>
</linearGradient>
<linearGradient id="paint1_linear_762_5293" x1="2.15454" y1="25.446" x2="34.3381" y2="25.446" gradientUnits="userSpaceOnUse">
<stop stop-color="#713DE3"/>
<stop offset="1" stop-color="#FF7395"/>
</linearGradient>
</defs>
</svg>
