<svg width="225" height="124" viewBox="0 0 225 124" fill="none" xmlns="http://www.w3.org/2000/svg">
<g filter="url(#filter0_iig_885_14640)">
<path d="M199.226 30.4012C204.759 31.0419 209.626 34.5413 211.422 39.8142C218.588 60.8552 218.881 83.7198 212.121 105.058C204.452 129.265 188.232 149.852 166.491 162.972C144.75 176.091 118.976 180.845 93.9853 176.347C68.9944 171.848 46.4965 158.403 30.6958 138.525C14.8952 118.648 6.87277 93.6967 8.1278 68.3351C9.38283 42.9735 19.8294 18.9365 37.5154 0.715845C55.2014 -17.5048 78.9167 -28.6624 104.23 -30.6721C126.476 -32.4382 148.619 -27.0323 167.465 -15.3772C172.293 -12.3911 174.6 -6.71823 173.857 -1.08999L172.229 11.232C171.082 19.9176 177.272 27.8592 185.975 28.8669L199.226 30.4012Z" fill="url(#paint0_linear_885_14640)"/>
</g>
<g filter="url(#filter1_d_885_14640)">
<path d="M104.738 40.0345C104.738 35.7611 108.129 32.2969 112.312 32.2969H112.69C116.873 32.2969 120.264 35.7611 120.264 40.0345V52.0278C120.264 56.3012 116.873 59.7654 112.69 59.7654H112.312C108.129 59.7654 104.738 56.3012 104.738 52.0278V40.0345Z" fill="url(#paint1_radial_885_14640)"/>
</g>
<g filter="url(#filter2_d_885_14640)">
<path d="M67.7148 40.0345C67.7148 35.7611 71.1056 32.2969 75.2884 32.2969H75.667C79.8498 32.2969 83.2406 35.7611 83.2406 40.0345V52.0278C83.2406 56.3012 79.8498 59.7654 75.667 59.7654H75.2884C71.1056 59.7654 67.7148 56.3012 67.7148 52.0278V40.0345Z" fill="url(#paint2_radial_885_14640)"/>
</g>
<path d="M123.87 59.7657C125.848 59.7794 127.441 61.3767 127.428 63.3333C127.375 70.7174 125.104 76.5524 121.288 80.7658C117.499 84.9501 112.43 87.2683 107.23 88.0862C97.0895 89.6808 85.3312 85.6622 80.1479 76.9088C79.148 75.2202 79.7217 73.0498 81.4292 72.0611C83.1367 71.0723 85.3316 71.6396 86.3315 73.3282C89.6684 78.9635 98.1188 82.3437 106.104 81.0879C109.966 80.4806 113.439 78.8114 115.95 76.0388C118.434 73.2952 120.22 69.2033 120.262 63.284C120.276 61.3274 121.891 59.7521 123.87 59.7657Z" fill="#351C68"/>
<defs>
<filter id="filter0_iig_885_14640" x="0" y="-51" width="225" height="237" filterUnits="userSpaceOnUse" color-interpolation-filters="sRGB">
<feFlood flood-opacity="0" result="BackgroundImageFix"/>
<feBlend mode="normal" in="SourceGraphic" in2="BackgroundImageFix" result="shape"/>
<feColorMatrix in="SourceAlpha" type="matrix" values="0 0 0 0 0 0 0 0 0 0 0 0 0 0 0 0 0 0 127 0" result="hardAlpha"/>
<feOffset dx="-8" dy="-20"/>
<feGaussianBlur stdDeviation="12"/>
<feComposite in2="hardAlpha" operator="arithmetic" k2="-1" k3="1"/>
<feColorMatrix type="matrix" values="0 0 0 0 0 0 0 0 0 0 0 0 0 0 0 0 0 0 0.2 0"/>
<feBlend mode="normal" in2="shape" result="effect1_innerShadow_885_14640"/>
<feColorMatrix in="SourceAlpha" type="matrix" values="0 0 0 0 0 0 0 0 0 0 0 0 0 0 0 0 0 0 127 0" result="hardAlpha"/>
<feOffset dx="8" dy="4"/>
<feGaussianBlur stdDeviation="8"/>
<feComposite in2="hardAlpha" operator="arithmetic" k2="-1" k3="1"/>
<feColorMatrix type="matrix" values="0 0 0 0 1 0 0 0 0 0.705811 0 0 0 0 0.985291 0 0 0 0.8 0"/>
<feBlend mode="normal" in2="effect1_innerShadow_885_14640" result="effect2_innerShadow_885_14640"/>
<feTurbulence type="fractalNoise" baseFrequency="0.66666668653488159 0.66666668653488159" numOctaves="3" seed="6372" />
<feDisplacementMap in="effect2_innerShadow_885_14640" scale="16" xChannelSelector="R" yChannelSelector="G" result="displacedImage" width="100%" height="100%" />
<feMerge result="effect3_texture_885_14640">
<feMergeNode in="displacedImage"/>
</feMerge>
</filter>
<filter id="filter1_d_885_14640" x="95.7383" y="24.2969" width="39.5254" height="51.4688" filterUnits="userSpaceOnUse" color-interpolation-filters="sRGB">
<feFlood flood-opacity="0" result="BackgroundImageFix"/>
<feColorMatrix in="SourceAlpha" type="matrix" values="0 0 0 0 0 0 0 0 0 0 0 0 0 0 0 0 0 0 127 0" result="hardAlpha"/>
<feOffset dx="3" dy="4"/>
<feGaussianBlur stdDeviation="6"/>
<feComposite in2="hardAlpha" operator="out"/>
<feColorMatrix type="matrix" values="0 0 0 0 0.344764 0 0 0 0 0.0136681 0 0 0 0 0.284063 0 0 0 0.32 0"/>
<feBlend mode="normal" in2="BackgroundImageFix" result="effect1_dropShadow_885_14640"/>
<feBlend mode="normal" in="SourceGraphic" in2="effect1_dropShadow_885_14640" result="shape"/>
</filter>
<filter id="filter2_d_885_14640" x="58.7148" y="24.2969" width="39.5254" height="51.4688" filterUnits="userSpaceOnUse" color-interpolation-filters="sRGB">
<feFlood flood-opacity="0" result="BackgroundImageFix"/>
<feColorMatrix in="SourceAlpha" type="matrix" values="0 0 0 0 0 0 0 0 0 0 0 0 0 0 0 0 0 0 127 0" result="hardAlpha"/>
<feOffset dx="3" dy="4"/>
<feGaussianBlur stdDeviation="6"/>
<feComposite in2="hardAlpha" operator="out"/>
<feColorMatrix type="matrix" values="0 0 0 0 0.344764 0 0 0 0 0.0136681 0 0 0 0 0.284063 0 0 0 0.32 0"/>
<feBlend mode="normal" in2="BackgroundImageFix" result="effect1_dropShadow_885_14640"/>
<feBlend mode="normal" in="SourceGraphic" in2="effect1_dropShadow_885_14640" result="shape"/>
</filter>
<linearGradient id="paint0_linear_885_14640" x1="60.348" y1="126.044" x2="257.976" y2="-71.5846" gradientUnits="userSpaceOnUse">
<stop stop-color="#FF7395"/>
<stop offset="1" stop-color="#713DE3"/>
</linearGradient>
<radialGradient id="paint1_radial_885_14640" cx="0" cy="0" r="1" gradientTransform="matrix(7.38418 7.54419 -6.59055 6.73336 110.797 38.1001)" gradientUnits="userSpaceOnUse">
<stop offset="0.177885" stop-color="white"/>
<stop offset="0.399038" stop-color="#28154F"/>
</radialGradient>
<radialGradient id="paint2_radial_885_14640" cx="0" cy="0" r="1" gradientTransform="matrix(7.38418 7.54419 -6.59055 6.73336 73.7737 38.1001)" gradientUnits="userSpaceOnUse">
<stop offset="0.177885" stop-color="white"/>
<stop offset="0.399038" stop-color="#28154F"/>
</radialGradient>
</defs>
</svg>
