<svg width="24" height="24" viewBox="0 0 24 24" fill="currentColor" xmlns="http://www.w3.org/2000/svg">
<path d="M18.8006 10.4012C18.8006 9.84427 18.5794 9.31019 18.1856 8.91641C17.7919 8.52263 17.2578 8.3014 16.7009 8.3014H8.30188C7.745 8.3014 7.21092 8.52263 6.81714 8.91641C6.42336 9.31019 6.20213 9.84427 6.20213 10.4012V16.7004C6.20213 17.2573 6.42336 17.7914 6.81714 18.1852C7.21092 18.5789 7.745 18.8002 8.30188 18.8002H16.7009C17.2578 18.8002 17.7919 18.5789 18.1856 18.1852C18.5794 17.7914 18.8006 17.2573 18.8006 16.7004V10.4012ZM8.30188 14.6007V12.5009C8.30188 12.2225 8.4125 11.9554 8.60939 11.7585C8.80627 11.5616 9.07331 11.451 9.35176 11.451C9.6302 11.451 9.89724 11.5616 10.0941 11.7585C10.291 11.9554 10.4016 12.2225 10.4016 12.5009V14.6007C10.4016 14.8791 10.291 15.1461 10.0941 15.343C9.89724 15.5399 9.6302 15.6505 9.35176 15.6505C9.07331 15.6505 8.80627 15.5399 8.60939 15.343C8.4125 15.1461 8.30188 14.8791 8.30188 14.6007ZM14.6011 14.6007V12.5009C14.6011 12.2225 14.7117 11.9554 14.9086 11.7585C15.1055 11.5616 15.3726 11.451 15.651 11.451C15.9295 11.451 16.1965 11.5616 16.3934 11.7585C16.5903 11.9554 16.7009 12.2225 16.7009 12.5009V14.6007C16.7009 14.8791 16.5903 15.1461 16.3934 15.343C16.1965 15.5399 15.9295 15.6505 15.651 15.6505C15.3726 15.6505 15.1055 15.5399 14.9086 15.343C14.7117 15.1461 14.6011 14.8791 14.6011 14.6007ZM14.6011 4.1019C14.6011 4.87881 14.178 5.55388 13.5513 5.91819V6.20165H16.7009C17.8147 6.20165 18.8828 6.6441 19.6704 7.43166C20.4579 8.21922 20.9004 9.28738 20.9004 10.4012V10.4536C21.4929 10.5752 22.0252 10.8975 22.4075 11.3661C22.7898 11.8348 22.9986 12.421 22.9986 13.0258C22.9986 13.6306 22.7898 14.2169 22.4075 14.6856C22.0252 15.1542 21.4929 15.4765 20.9004 15.598V16.7004C20.9004 17.8142 20.4579 18.8823 19.6704 19.6699C18.8828 20.4575 17.8147 20.8999 16.7009 20.8999H8.30188C7.18811 20.8999 6.11995 20.4575 5.33239 19.6699C4.54483 18.8823 4.10238 17.8142 4.10238 16.7004V15.598C3.50905 15.4776 2.97562 15.1557 2.59246 14.6869C2.20931 14.2181 2 13.6313 2 13.0258C2 12.4204 2.20931 11.8336 2.59246 11.3648C2.97562 10.896 3.50905 10.5741 4.10238 10.4536V10.4012C4.10238 9.28738 4.54483 8.21922 5.33239 7.43166C6.11995 6.6441 7.18811 6.20165 8.30188 6.20165H11.4515V5.91819C11.1322 5.73385 10.8671 5.4687 10.6828 5.14939C10.4985 4.83009 10.4015 4.46789 10.4016 4.09921C10.4017 3.73054 10.4989 3.36839 10.6834 3.04918C10.8678 2.72997 11.1331 2.46495 11.4524 2.28078C11.7718 2.0966 12.1341 1.99976 12.5027 2C12.8714 2.00024 13.2335 2.09754 13.5527 2.28212C13.8718 2.4667 14.1367 2.73206 14.3208 3.05151C14.5048 3.37095 14.6015 3.73323 14.6011 4.1019Z" />
</svg>
