<svg width="112" height="223" viewBox="0 0 112 223" fill="none" xmlns="http://www.w3.org/2000/svg">
<path d="M0 11.4199C0 4.7925 5.38776 -0.646563 11.9772 0.0621701C22.5745 1.20198 32.9756 3.85095 42.8605 7.94542C56.449 13.5739 68.7958 21.8238 79.196 32.224C89.5961 42.6241 97.846 54.9709 103.475 68.5594C109.103 82.1479 112 96.7119 112 111.42C112 126.128 109.103 140.692 103.475 154.28C97.846 167.869 89.5961 180.216 79.1959 190.616C68.7958 201.016 56.449 209.266 42.8605 214.894C32.9756 218.989 22.5744 221.638 11.9771 222.778C5.38771 223.486 -3.8147e-05 218.047 -3.05176e-05 211.42V208.54C-3.05176e-05 201.913 5.3987 196.627 11.9604 195.695C19.0253 194.693 25.9521 192.803 32.574 190.061C42.9012 185.783 52.2848 179.513 60.1889 171.609C68.093 163.705 74.3629 154.321 78.6406 143.994C82.9183 133.667 85.12 122.598 85.12 111.42C85.12 100.242 82.9183 89.1732 78.6406 78.8459C74.3629 68.5187 68.093 59.1351 60.1889 51.231C52.2848 43.3269 42.9012 37.057 32.574 32.7793C25.9521 30.0364 19.0254 28.1471 11.9604 27.1444C5.39871 26.2132 0 20.9273 0 14.2999V11.4199Z" fill="url(#paint0_linear_343_5988)"/>
<defs>
<linearGradient id="paint0_linear_343_5988" x1="-112" y1="111.42" x2="112" y2="111.42" gradientUnits="userSpaceOnUse">
<stop stop-color="#713DE3"/>
<stop offset="1" stop-color="#4F46DD"/>
</linearGradient>
</defs>
</svg>
