<svg width="222" height="224" viewBox="0 0 222 224" fill="none" xmlns="http://www.w3.org/2000/svg">
<path d="M97.8979 12.6737C97.1299 6.09091 101.851 0.0640861 108.478 0.00444982C126.497 -0.157696 144.353 4.03114 160.499 12.2922C180.22 22.3817 196.505 38.0924 207.297 57.4376C218.088 76.7827 222.901 98.8934 221.126 120.974C219.351 143.054 211.068 164.112 197.326 181.485C183.583 198.858 164.997 211.766 143.918 218.576C122.839 225.386 100.215 225.792 78.9047 219.744C57.595 213.696 38.5573 201.464 24.1992 184.596C12.443 170.785 4.25634 154.373 0.266272 136.801C-1.20125 130.338 3.57686 124.356 10.1596 123.588L13.0202 123.254C19.603 122.486 25.4788 127.236 27.1641 133.646C30.3978 145.944 36.3601 157.413 44.668 167.173C55.5802 179.993 70.0488 189.289 86.2442 193.885C102.44 198.482 119.634 198.173 135.654 192.998C151.674 187.822 165.8 178.012 176.244 164.809C186.689 151.605 192.983 135.601 194.332 118.82C195.681 102.039 192.024 85.2348 183.822 70.5325C175.621 55.8302 163.244 43.8901 148.256 36.2221C136.846 30.3841 124.312 27.2221 111.6 26.9062C104.975 26.7416 98.9996 22.1171 98.2317 15.5343L97.8979 12.6737Z" fill="url(#paint0_linear_343_5974)"/>
<defs>
<linearGradient id="paint0_linear_343_5974" x1="-2.51404" y1="112" x2="221.486" y2="112" gradientUnits="userSpaceOnUse">
<stop stop-color="#713DE3"/>
<stop offset="1" stop-color="#FF7395"/>
</linearGradient>
</defs>
</svg>
