<svg width="24" height="24" viewBox="0 0 24 24" fill="currentColor" xmlns="http://www.w3.org/2000/svg">
<path d="M5.85254 19.7734C6.20338 19.9189 6.5897 20 7 20H8.25V22H7C6.3218 22 5.67564 21.8638 5.08594 21.6191L5.85254 19.7734Z"/>
<path d="M13.25 22H10.75V20H13.25V22Z"/>
<path d="M18.9131 21.6191C18.3236 21.8636 17.6779 22 17 22H15.75V20H17C17.4103 20 17.7966 19.9189 18.1475 19.7734L18.9131 21.6191Z"/>
<path d="M4 17C4 17.4103 4.08114 17.7966 4.22656 18.1475L3.30176 18.5303L3.30273 18.5312L2.37988 18.9131C2.13556 18.3237 2 17.6777 2 17V15.75H4V17Z"/>
<path d="M22 17C22 17.6779 21.8636 18.3236 21.6191 18.9131L20.6973 18.5312L19.7734 18.1475C19.9189 17.7966 20 17.4103 20 17V15.75H22V17Z"/>
<path d="M4 13.25H2V10.75H4V13.25Z"/>
<path d="M22 13.25H20V10.75H22V13.25Z"/>
<path d="M4.22656 5.85254C4.08114 6.20338 4 6.5897 4 7V8.25H2V7C2 6.39604 2.10749 5.81724 2.30371 5.28125L2.37988 5.08594L4.22656 5.85254Z"/>
<path d="M21.6191 5.08594C21.8638 5.67564 22 6.3218 22 7V8.25H20V7C20 6.5897 19.9189 6.20338 19.7734 5.85254L21.6191 5.08594Z"/>
<path d="M8.25 4H7C6.5897 4 6.20338 4.08114 5.85254 4.22656L5.4668 3.29883L5.08594 2.37988C5.67555 2.13534 6.32194 2 7 2H8.25V4Z"/>
<path d="M17 2C17.6777 2 18.3237 2.13556 18.9131 2.37988L18.5332 3.29883L18.1475 4.22656C17.7966 4.08114 17.4103 4 17 4H15.75V2H17Z"/>
<path d="M13.25 4H10.75V2H13.25V4Z"/>
</svg>
