<svg width="24" height="24" viewBox="0 0 24 24" fill="none" xmlns="http://www.w3.org/2000/svg">
<path fill-rule="evenodd" clip-rule="evenodd" d="M13.1716 3.41425C14.7337 1.85215 17.2663 1.85215 18.8284 3.41425C20.3905 4.97635 20.3905 7.50901 18.8284 9.0711L9.9896 17.9099C9.01329 18.8862 7.43038 18.8862 6.45407 17.9099C5.47775 16.9336 5.47776 15.3507 6.45407 14.3744L15.2929 5.53557C15.6834 5.14504 16.3166 5.14504 16.7071 5.53557C17.0976 5.92609 17.0976 6.55926 16.7071 6.94978L7.86828 15.7886C7.67302 15.9839 7.67302 16.3005 7.86828 16.4957C8.06354 16.691 8.38012 16.691 8.57539 16.4957L17.4142 7.65689C18.1953 6.87584 18.1953 5.60951 17.4142 4.82846C16.6332 4.04741 15.3668 4.04741 14.5858 4.82846L5.74696 13.6673C4.38012 15.0341 4.38012 17.2502 5.74696 18.617C7.11379 19.9839 9.32987 19.9839 10.6967 18.617L19.7929 9.52085C20.1834 9.13033 20.8166 9.13033 21.2071 9.52085C21.5976 9.91137 21.5976 10.5445 21.2071 10.9351L12.1109 20.0313C9.96304 22.1791 6.48063 22.1791 4.33274 20.0313C2.18486 17.8834 2.18486 14.401 4.33275 12.2531L13.1716 3.41425Z" fill="black"/>
</svg>
