<svg width="24" height="24" viewBox="0 0 24 24" fill="currentColor" xmlns="http://www.w3.org/2000/svg">
<path fill-rule="evenodd" clip-rule="evenodd" d="M4 4.00012C4 3.44783 4.44772 3.00012 5 3.00012H19C19.5523 3.00012 20 3.44783 20 4.00012C20 4.5524 19.5523 5.00012 19 5.00012H5C4.44772 5.00012 4 4.5524 4 4.00012Z" />
<path fill-rule="evenodd" clip-rule="evenodd" d="M5.9233 7.00306C6.47396 6.9607 6.9547 7.37276 6.99705 7.92342L7.78398 18.1535C7.86414 19.1955 8.73302 20.0001 9.77809 20.0001H14.2219C15.267 20.0001 16.1359 19.1955 16.216 18.1535L17.0029 7.92342C17.0453 7.37276 17.526 6.9607 18.0767 7.00306C18.6274 7.04542 19.0394 7.52615 18.9971 8.07681L18.2101 18.3069C18.0498 20.3909 16.3121 22.0001 14.2219 22.0001H9.77809C7.68795 22.0001 5.95018 20.3909 5.78988 18.3069L5.00295 8.07681C4.96059 7.52615 5.37265 7.04542 5.9233 7.00306Z" />
<path fill-rule="evenodd" clip-rule="evenodd" d="M12 4.15063C12.5784 4.69046 13.3463 5.00012 14.1552 5.00012L16 5.00012V3.00012L14.1552 3.00012C13.7679 3.00012 13.4061 2.80652 13.1913 2.48422C12.6246 1.63417 11.3754 1.63417 10.8087 2.48422C10.5939 2.80652 10.2321 3.00011 9.84479 3.00011L8 3.00011V5.00011L9.84479 5.00011C10.6537 5.00011 11.4216 4.69046 12 4.15063Z" />
</svg>
