<svg width="20" height="20" viewBox="0 0 20 20" fill="none" xmlns="http://www.w3.org/2000/svg">
<path fill-rule="evenodd" clip-rule="evenodd" d="M6.54869 1.15506e-10C5.93183 1.15506e-10 5.23426 0.0650155 4.56793 0.292119C0.550789 1.60375 -0.740737 5.89388 0.394616 9.42986L0.399386 9.44471L0.404618 9.45941C1.0302 11.2173 2.03811 12.8126 3.34921 14.1248L3.35676 14.1323L3.36447 14.1397C5.23367 15.9322 7.26839 17.4952 9.47149 18.8514L9.98926 19.1702L10.5105 18.8572C12.7184 17.5314 14.7923 15.9253 16.639 14.1473L16.6448 14.1417L16.6505 14.1361C17.973 12.8214 18.9809 11.2143 19.5973 9.45475L19.6025 9.44004L19.6072 9.42519C20.721 5.89691 19.436 1.60164 15.4465 0.309357C14.7934 0.0920901 14.1195 1.15506e-10 13.4606 1.15506e-10C11.9786 -9.77482e-06 10.8817 0.620514 9.99624 1.25297C9.11775 0.625326 8.01342 1.15506e-10 6.54869 1.15506e-10Z" fill="currentColor"/>
</svg>
