<svg width="20" height="20" viewBox="0 0 20 20" fill="none" xmlns="http://www.w3.org/2000/svg">
<path fill-rule="evenodd" clip-rule="evenodd" d="M4.56793 0.292119C5.23426 0.0650155 5.93183 1.16415e-10 6.54869 1.16415e-10C8.01342 1.16415e-10 9.11775 0.625326 9.99624 1.25297C10.8817 0.620514 11.9786 -9.77505e-06 13.4606 1.16415e-10C14.1195 1.16415e-10 14.7934 0.0920901 15.4465 0.309357C19.436 1.60164 20.721 5.89691 19.6072 9.42519L19.6025 9.44004L19.5973 9.45475C18.9809 11.2143 17.973 12.8214 16.6505 14.1361L16.6448 14.1417L16.639 14.1473C14.7923 15.9253 12.7184 17.5314 10.5105 18.8572L9.98926 19.1702L9.47149 18.8514C7.26839 17.4952 5.23367 15.9322 3.36447 14.1397L3.35676 14.1323L3.34921 14.1248C2.03811 12.8126 1.0302 11.2173 0.404618 9.45941L0.399386 9.44471L0.394616 9.42986C-0.740737 5.89388 0.550789 1.60375 4.56793 0.292119ZM6.54869 2C6.05536 2 5.5948 2.05434 5.20889 2.18664L5.20146 2.18919L5.19399 2.19162C2.50584 3.0662 1.40478 6.01153 2.29417 8.80375C2.81977 10.2738 3.66301 11.607 4.75658 12.7037C6.3711 14.251 8.11769 15.6183 10.0014 16.8229C11.8788 15.6436 13.6508 14.2472 15.246 12.7122C16.3453 11.6176 17.1874 10.2777 17.7046 8.80844C18.5816 6.00771 17.4733 3.06631 14.827 2.211L14.8181 2.20812C14.3945 2.06679 13.936 2 13.4606 2C12.3698 1.99999 11.6157 2.52498 10.6007 3.29612L9.99474 3.75645L9.38954 3.29517C8.39062 2.53381 7.62002 2 6.54869 2Z" fill="currentColor"/>
</svg>
