<svg width="24" height="24" viewBox="0 0 24 24" fill="none" xmlns="http://www.w3.org/2000/svg">
<path fill-rule="evenodd" clip-rule="evenodd" d="M12.0001 3.15479C6.79552 3.15479 2.57153 6.43593 2.57153 10.4714C2.57153 12.9888 4.20267 15.1856 6.6918 16.5245L5.64524 20.3619C5.62549 20.4383 5.62955 20.5188 5.65688 20.5928C5.68421 20.6667 5.7335 20.7305 5.79814 20.7757C5.86278 20.8208 5.93967 20.8451 6.01851 20.8453C6.09735 20.8455 6.17437 20.8216 6.23923 20.7768L10.8215 17.7314C11.2081 17.7314 11.6041 17.7974 12.0001 17.7974C17.2046 17.7974 21.4286 14.5162 21.4286 10.4714C21.4286 6.4265 17.2046 3.15479 12.0001 3.15479Z" fill="black"/>
</svg>
