<svg width="24" height="24" viewBox="0 0 24 24" fill="none" xmlns="http://www.w3.org/2000/svg">
<path d="M11.7 7.7C11.3134 7.3134 10.6866 7.3134 10.3 7.7C9.9134 8.0866 9.9134 8.7134 10.3 9.1L12.2 11H3C2.44771 11 2 11.4477 2 12C2 12.5523 2.44772 13 3 13H12.2L10.3 14.9C9.9134 15.2866 9.9134 15.9134 10.3 16.3C10.6866 16.6866 11.3134 16.6866 11.7 16.3L15.2929 12.7071C15.6834 12.3166 15.6834 11.6834 15.2929 11.2929L11.7 7.7ZM20 19H13C12.4477 19 12 19.4477 12 20C12 20.5523 12.4477 21 13 21H20C21.1 21 22 20.1 22 19V5C22 3.9 21.1 3 20 3H13C12.4477 3 12 3.44772 12 4C12 4.55228 12.4477 5 13 5H20V19Z" fill="black"/>
</svg>
