<svg width="24" height="24" viewBox="0 0 24 24" fill="none" xmlns="http://www.w3.org/2000/svg">
<path fill-rule="evenodd" clip-rule="evenodd" d="M15.9301 1.92763C17.2905 2.03216 18.9661 2.42672 20.1284 3.58876C21.1944 4.65478 21.6622 6.15924 21.8588 7.4413C22.1962 9.64243 21.0673 11.6046 19.6957 12.9765L14.6811 17.9911C14.1186 18.5536 13.3554 18.8699 12.56 18.87H6.71331L3.78851 21.7948C3.39797 22.1853 2.76498 22.1853 2.37444 21.7948C1.98391 21.4043 1.98391 20.7713 2.37444 20.3808L5.09808 17.6571V11.1571C5.09822 10.3616 5.41447 9.59851 5.97698 9.03602L10.9311 4.08192C12.1738 2.83941 13.9121 1.77261 15.9301 1.92763ZM10.1303 15.453L8.71331 16.87H12.56C12.825 16.8699 13.0796 16.7644 13.267 16.577L14.391 15.453H10.1303ZM15.7768 3.92177C14.5804 3.82992 13.3822 4.45914 12.3451 5.49599L7.39105 10.4501C7.20363 10.6375 7.09823 10.8921 7.09808 11.1571V15.6571L15.0366 7.71864C15.4271 7.32813 16.0611 7.32813 16.4516 7.71864C16.8419 8.10903 16.8417 8.74219 16.4516 9.1327L12.1303 13.453H16.3901L18.2807 11.5624C19.4246 10.4185 20.0839 9.05933 19.8823 7.74403C19.7125 6.6372 19.3415 5.62996 18.7143 5.00282C18.0545 4.34322 16.9612 4.01278 15.7768 3.92177Z" fill="black"/>
</svg>
