<svg width="20" height="20" viewBox="0 0 20 20" fill="none" xmlns="http://www.w3.org/2000/svg">
<path fill-rule="evenodd" clip-rule="evenodd" d="M10 3.33317C6.31812 3.33317 3.33335 6.31794 3.33335 9.99984C3.33335 11.41 3.77023 12.7155 4.51599 13.7918C4.7628 14.148 4.82229 14.6235 4.6268 15.0441L3.87276 16.6665H10C13.6819 16.6665 16.6667 13.6817 16.6667 9.99984C16.6667 6.31794 13.6819 3.33317 10 3.33317ZM1.66669 9.99984C1.66669 5.39746 5.39765 1.6665 10 1.6665C14.6024 1.6665 18.3334 5.39746 18.3334 9.99984C18.3334 14.6022 14.6024 18.3332 10 18.3332H3.21801C2.27282 18.3332 1.6749 17.3276 2.11173 16.5011L3.01815 14.5509C2.16353 13.2422 1.66669 11.6779 1.66669 9.99984Z" fill="#4F46DD"/>
</svg>
