<svg width="24" height="24" viewBox="0 0 24 24" fill="currentColor" xmlns="http://www.w3.org/2000/svg">
<path fill-rule="evenodd" clip-rule="evenodd" d="M10.2688 4.99011C11.0392 3.65954 12.9604 3.65954 13.7308 4.99011L21.262 17.9979C22.0339 19.3313 21.0712 20.9999 19.5306 20.9999H4.46904C2.9284 20.9999 1.96573 19.3313 2.7376 17.9979L10.2688 4.99011ZM12.0003 15.9999C11.448 15.9999 11.0003 16.4476 11.0003 16.9999C11.0003 17.5522 11.448 17.9999 12.0003 17.9999C12.5526 17.9999 13.0003 17.5522 13.0003 16.9999C13.0003 16.4476 12.5526 15.9999 12.0003 15.9999ZM12.0003 8.99988C11.448 8.99988 11.0003 9.4476 11.0003 9.99988V13.9999C11.0003 14.5522 11.448 14.9999 12.0003 14.9999C12.5526 14.9999 13.0003 14.5522 13.0003 13.9999V9.99988C13.0003 9.4476 12.5526 8.99988 12.0003 8.99988Z"/>
</svg>
