<svg width="24" height="24" viewBox="0 0 24 24" fill="none" xmlns="http://www.w3.org/2000/svg">
<path fill-rule="evenodd" clip-rule="evenodd" d="M11.3506 4C9.69373 4 8.35059 5.34315 8.35059 7C8.35059 8.65685 9.69373 10 11.3506 10C13.0074 10 14.3506 8.65685 14.3506 7C14.3506 5.34315 13.0074 4 11.3506 4ZM6.35059 7C6.35059 4.23858 8.58916 2 11.3506 2C14.112 2 16.3506 4.23858 16.3506 7C16.3506 9.76142 14.112 12 11.3506 12C8.58916 12 6.35059 9.76142 6.35059 7Z" fill="black"/>
<path fill-rule="evenodd" clip-rule="evenodd" d="M11.3506 15C7.90819 15 6.09856 16.2198 5.19578 17.6976C4.8816 18.212 4.96062 18.6971 5.34419 19.1428C5.76261 19.629 6.51923 20 7.35064 20H15.3506C16.1821 20 16.9387 19.629 17.3571 19.1428C17.7407 18.6971 17.8197 18.212 17.5055 17.6976C16.6027 16.2198 14.7931 15 11.3506 15ZM3.48903 16.655C4.83833 14.4462 7.38748 13 11.3506 13C15.3138 13 17.8629 14.4462 19.2123 16.655C20.0497 18.0259 19.7292 19.4526 18.873 20.4474C18.0517 21.4018 16.7284 22 15.3506 22H7.35064C5.97291 22 4.6496 21.4018 3.82828 20.4474C2.97211 19.4526 2.65158 18.0259 3.48903 16.655Z" fill="black"/>
<path fill-rule="evenodd" clip-rule="evenodd" d="M16 11.5C16 11.0168 16.1741 10.625 16.3889 10.625H22.6111C22.8259 10.625 23 11.0168 23 11.5C23 11.9832 22.8259 12.375 22.6111 12.375H16.3889C16.1741 12.375 16 11.9832 16 11.5Z" fill="black"/>
<path fill-rule="evenodd" clip-rule="evenodd" d="M19.5 8C19.9832 8 20.375 8.17411 20.375 8.38889V14.6111C20.375 14.8259 19.9832 15 19.5 15C19.0168 15 18.625 14.8259 18.625 14.6111V8.38889C18.625 8.17411 19.0168 8 19.5 8Z" fill="black"/>
</svg>
