<svg width="24" height="24" viewBox="0 0 24 24" fill="none" xmlns="http://www.w3.org/2000/svg">
<path fill-rule="evenodd" clip-rule="evenodd" d="M2 7C2 4.23858 4.23858 2 7 2H17C19.7614 2 22 4.23858 22 7V17C22 19.7614 19.7614 22 17 22H7C4.23858 22 2 19.7614 2 17V7ZM7 4C5.34315 4 4 5.34315 4 7V17C4 18.6569 5.34315 20 7 20H17C18.6569 20 20 18.6569 20 17V7C20 5.34315 18.6569 4 17 4H7Z" fill="black"/>
<path fill-rule="evenodd" clip-rule="evenodd" d="M9 10.2679C9 8.72835 10.6667 7.7661 12 8.5359L15 10.2679C16.3333 11.0378 16.3333 12.9623 15 13.732L12 15.4641C10.6667 16.2339 9 15.2716 9 13.732V10.2679ZM14 12L11 10.2679V13.732L14 12Z" fill="black"/>
</svg>
