<svg width="24" height="24" viewBox="0 0 24 24" fill="none" xmlns="http://www.w3.org/2000/svg">
<path d="M12.279 9.86753C12.7079 10.2155 13.3376 10.1499 13.6856 9.72107C14.0336 9.2922 13.968 8.66244 13.5392 8.31446L12.9091 9.091L12.279 9.86753ZM10.8636 8.36373L10.8652 7.36373H10.8636V8.36373ZM13.5341 15.6898C13.9652 15.3446 14.0349 14.7153 13.6897 14.2842C13.3445 13.8531 12.7152 13.7834 12.2841 14.1286L12.9091 14.9092L13.5341 15.6898ZM2 12.0001H1C1 17.5242 5.26663 22.091 10.6364 22.091V21.091V20.091C6.46663 20.091 3 16.5175 3 12.0001H2ZM10.6364 21.091V22.091C16.0061 22.091 20.2727 17.5242 20.2727 12.0001H19.2727H18.2727C18.2727 16.5175 14.8061 20.091 10.6364 20.091V21.091ZM19.2727 12.0001H20.2727C20.2727 6.47599 16.0061 1.90918 10.6364 1.90918V2.90918V3.90918C14.8061 3.90918 18.2727 7.48265 18.2727 12.0001H19.2727ZM10.6364 2.90918V1.90918C5.26663 1.90918 1 6.47599 1 12.0001H2H3C3 7.48265 6.46663 3.90918 10.6364 3.90918V2.90918ZM12.9091 9.091L13.5392 8.31446C12.7829 7.70086 11.8391 7.36527 10.8652 7.36373L10.8636 8.36373L10.8621 9.36372C11.3781 9.36454 11.8783 9.54238 12.279 9.86753L12.9091 9.091ZM10.8636 8.36373V7.36373C8.36896 7.36373 6.45455 9.50033 6.45455 12.0001H7.45455H8.45455C8.45455 10.4817 9.59286 9.36373 10.8636 9.36373V8.36373ZM7.45455 12.0001H6.45455C6.45455 14.4998 8.36896 16.6365 10.8636 16.6365V15.6365V14.6365C9.59286 14.6365 8.45455 13.5185 8.45455 12.0001H7.45455ZM10.8636 15.6365V16.6365C11.8723 16.6365 12.7981 16.279 13.5341 15.6898L12.9091 14.9092L12.2841 14.1286C11.88 14.4521 11.3895 14.6365 10.8636 14.6365V15.6365ZM10.1818 2.90918V3.90918C12.1067 3.90918 14.8678 4.13706 17.1154 5.27812C18.2238 5.84084 19.1828 6.61335 19.868 7.67146C20.5503 8.72517 21 10.122 21 12.0001H22H23C23 9.78731 22.4649 8.00228 21.5467 6.5844C20.6315 5.17091 19.3745 4.18206 18.0208 3.49478C15.344 2.13585 12.1961 1.90918 10.1818 1.90918V2.90918ZM22 12.0001H21C21 13.8782 20.5503 15.275 19.868 16.3287C19.1828 17.3868 18.2238 18.1593 17.1154 18.7221C14.8678 19.8631 12.1067 20.091 10.1818 20.091V21.091V22.091C12.1961 22.091 15.344 21.8643 18.0208 20.5054C19.3745 19.8181 20.6315 18.8293 21.5467 17.4158C22.4649 15.9979 23 14.2129 23 12.0001H22Z" fill="black"/>
</svg>
