<svg width="24" height="24" viewBox="0 0 24 24" fill="none" xmlns="http://www.w3.org/2000/svg">
<path d="M15.8384 21.8125C15.3051 21.9553 14.7569 21.6386 14.6138 21.1055C14.4708 20.572 14.7873 20.0228 15.3208 19.8799C16.8491 19.4704 18.2219 18.6173 19.2651 17.4277C20.3083 16.2382 20.9756 14.7659 21.1821 13.1973C21.3887 11.6286 21.1251 10.0333 20.4253 8.61426C19.7255 7.19533 18.6206 6.0157 17.2505 5.22461C15.8802 4.43349 14.3059 4.06645 12.7271 4.16992C11.1483 4.2734 9.63559 4.8426 8.38037 5.80566C7.12512 6.76886 6.18292 8.08282 5.67432 9.58105C5.20943 10.9506 5.12749 12.4179 5.4292 13.8271L6.38232 12.1572C6.65633 11.6777 7.26707 11.5111 7.74658 11.7852C8.22581 12.0593 8.39259 12.67 8.11865 13.1494L6.11865 16.6494L5.62061 17.5215L4.75049 17.0195L1.25049 14.999C0.772356 14.723 0.608521 14.111 0.884277 13.6328C1.16042 13.1545 1.7722 12.9905 2.25049 13.2666L3.4126 13.9375C3.11029 12.2711 3.23351 10.5507 3.78076 8.93848C4.41648 7.06571 5.5936 5.42373 7.1626 4.21973C8.7317 3.01571 10.6226 2.30318 12.5962 2.17383C14.5698 2.04448 16.5377 2.50328 18.2505 3.49219C19.9632 4.48104 21.3445 5.95577 22.2192 7.72949C23.094 9.50331 23.4227 11.4971 23.1646 13.458C22.9064 15.4188 22.0729 17.2592 20.769 18.7461C19.465 20.2331 17.7488 21.3006 15.8384 21.8125Z" fill="black"/>
</svg>
