<svg width="24" height="24" viewBox="0 0 24 24" fill="none" xmlns="http://www.w3.org/2000/svg">
<path fill-rule="evenodd" clip-rule="evenodd" d="M12 10C10.8954 10 10 10.8954 10 12C10 13.1046 10.8954 14 12 14C13.1046 14 14 13.1046 14 12C14 10.8954 13.1046 10 12 10ZM8 12C8 9.79086 9.79086 8 12 8C14.2091 8 16 9.79086 16 12C16 14.2091 14.2091 16 12 16C9.79086 16 8 14.2091 8 12Z" fill="black"/>
<path fill-rule="evenodd" clip-rule="evenodd" d="M8.72963 4.54104C8.72963 3.13766 9.86729 2 11.2707 2H12.7293C14.1327 2 15.2704 3.13766 15.2704 4.54104C15.2704 4.74442 15.4106 5.01577 15.7458 5.19782C15.849 5.25384 15.9507 5.31209 16.0509 5.37252C16.3853 5.57406 16.6991 5.56113 16.8834 5.45569C18.1072 4.75547 19.6667 5.17332 20.3764 6.39162L21.0808 7.60076C21.792 8.8214 21.3723 10.3877 20.1461 11.0892C19.9684 11.1909 19.8012 11.4496 19.8094 11.8346C19.8105 11.8896 19.8111 11.9448 19.8111 12C19.8111 12.0552 19.8105 12.1104 19.8094 12.1654C19.8012 12.5504 19.9684 12.8091 20.1461 12.9108C21.3723 13.6123 21.7919 15.1786 21.0808 16.3992L20.3764 17.6084C19.6666 18.8267 18.1071 19.2445 16.8833 18.5443C16.6991 18.4389 16.3852 18.4259 16.0509 18.6275C15.9507 18.6879 15.849 18.7462 15.7458 18.8022C15.4106 18.9842 15.2704 19.2556 15.2704 19.459C15.2704 20.8623 14.1327 22 12.7293 22H11.2707C9.86729 22 8.72963 20.8623 8.72963 19.459C8.72963 19.2556 8.58937 18.9842 8.25417 18.8022C8.15102 18.7462 8.04929 18.6879 7.94905 18.6275C7.61474 18.4259 7.30091 18.4389 7.11665 18.5443C5.89286 19.2445 4.33337 18.8267 3.62362 17.6084L2.91918 16.3992C2.20807 15.1786 2.62774 13.6123 3.85387 12.9108C4.03164 12.8091 4.19878 12.5504 4.19063 12.1654C4.18947 12.1104 4.18889 12.0553 4.18889 12C4.18889 11.9448 4.18947 11.8896 4.19063 11.8346C4.19878 11.4497 4.03163 11.191 3.85385 11.0892C2.6277 10.3877 2.20804 8.82141 2.91916 7.60077L3.62357 6.39163C4.33333 5.17333 5.89282 4.75548 7.11662 5.4557C7.30089 5.56113 7.61472 5.57407 7.94904 5.37253C8.04928 5.3121 8.15101 5.25384 8.25417 5.19782C8.58937 5.01577 8.72963 4.74442 8.72963 4.54104ZM11.2707 4C10.9719 4 10.7296 4.24223 10.7296 4.54104C10.7296 5.64708 10.0242 6.51246 9.20868 6.95535C9.13192 6.99703 9.05621 7.04039 8.9816 7.08537C8.18613 7.5649 7.08412 7.74134 6.12337 7.19163C5.85301 7.03694 5.5085 7.12925 5.3517 7.39839L4.64728 8.60754C4.49526 8.86848 4.58497 9.20332 4.8471 9.3533C5.80941 9.90391 6.20982 10.9487 6.19019 11.8769C6.18932 11.9178 6.18889 11.9589 6.18889 12C6.18889 12.0412 6.18932 12.0822 6.19019 12.1231C6.20982 13.0513 5.80942 14.0961 4.84712 14.6467C4.58501 14.7967 4.4953 15.1315 4.64731 15.3924L5.35175 16.6016C5.50854 16.8708 5.85305 16.9631 6.1234 16.8084C7.08414 16.2587 8.18614 16.4351 8.9816 16.9146C9.05622 16.9596 9.13192 17.003 9.20868 17.0447C10.0242 17.4875 10.7296 18.3529 10.7296 19.459C10.7296 19.7578 10.9719 20 11.2707 20H12.7293C13.0281 20 13.2704 19.7578 13.2704 19.459C13.2704 18.3529 13.9758 17.4875 14.7913 17.0447C14.8681 17.003 14.9438 16.9596 15.0184 16.9146C15.8138 16.4351 16.9158 16.2587 17.8766 16.8084C18.1469 16.9631 18.4915 16.8708 18.6482 16.6016L19.3527 15.3924C19.5047 15.1315 19.415 14.7967 19.1529 14.6467C18.1906 14.0961 17.7902 13.0513 17.8098 12.1231C17.8107 12.0822 17.8111 12.0412 17.8111 12C17.8111 11.9589 17.8107 11.9178 17.8098 11.8769C17.7902 10.9487 18.1906 9.9039 19.1529 9.35329C19.415 9.20331 19.5047 8.86848 19.3527 8.60753L18.6483 7.39839C18.4915 7.12924 18.147 7.03693 17.8766 7.19162C16.9159 7.74134 15.8139 7.5649 15.0184 7.08536C14.9438 7.04039 14.8681 6.99703 14.7913 6.95535C13.9758 6.51246 13.2704 5.64708 13.2704 4.54104C13.2704 4.24223 13.0281 4 12.7293 4H11.2707Z" fill="black"/>
</svg>
