<svg width="57" height="114" viewBox="0 0 57 114" fill="none" xmlns="http://www.w3.org/2000/svg">
<path d="M0 6.47379C0 2.69616 3.07319 -0.408534 6.82365 0.0437008C11.9651 0.663663 17.0088 1.98272 21.813 3.97266C28.7285 6.83718 35.0122 11.0358 40.3051 16.3287C45.598 21.6216 49.7966 27.9053 52.6611 34.8208C55.5257 41.7364 57 49.1485 57 56.6338C57 64.1191 55.5257 71.5312 52.6611 78.4468C49.7966 85.3623 45.598 91.646 40.3051 96.9389C35.0121 102.232 28.7285 106.43 21.8129 109.295C17.0088 111.285 11.9651 112.604 6.82364 113.224C3.07317 113.676 -1.90735e-05 110.571 -1.52588e-05 106.794C-1.52588e-05 103.016 3.08101 100.009 6.81165 99.4149C10.1561 98.8824 13.4345 97.9583 16.5778 96.6563C21.8337 94.4792 26.6092 91.2883 30.6319 87.2657C34.6545 83.243 37.8454 78.4675 40.0225 73.2116C42.1995 67.9558 43.32 62.3227 43.32 56.6338C43.32 50.9449 42.1995 45.3118 40.0225 40.0559C37.8454 34.8001 34.6545 30.0246 30.6319 26.0019C26.6092 21.9793 21.8337 18.7884 16.5779 16.6113C13.4345 15.3093 10.1562 14.3852 6.81166 13.8527C3.08102 13.2587 0 10.2514 0 6.47379Z" fill="url(#paint0_linear_439_8595)"/>
<defs>
<linearGradient id="paint0_linear_439_8595" x1="-57" y1="56.6338" x2="57" y2="56.6338" gradientUnits="userSpaceOnUse">
<stop stop-color="#713DE3"/>
<stop offset="1" stop-color="#4F46DD"/>
</linearGradient>
</defs>
</svg>
