<svg width="144" height="38" viewBox="0 0 144 38" fill="none" xmlns="http://www.w3.org/2000/svg">
<g clip-path="url(#clip0_929_15190)">
<path d="M19.6812 35.9101C29.0204 35.9101 36.5912 28.3392 36.5912 19.0001C36.5912 9.66095 29.0204 2.09009 19.6812 2.09009C10.3421 2.09009 2.77124 9.66095 2.77124 19.0001C2.77124 28.3392 10.3421 35.9101 19.6812 35.9101Z" fill="#EAE2FB"/>
<path d="M2.77116 21.6827C2.77116 21.6827 3.58098 31.6609 1.42505 35.91H19.5075C21.1236 35.91 22.6892 35.6796 24.1685 35.2511C28.1493 34.0988 29.3586 29.0214 26.4288 26.0867L12.5898 12.2411C9.59168 9.24149 4.54197 10.6314 3.36863 14.7113C2.96192 16.1301 2.70277 16.6738 2.77116 21.6827Z" fill="url(#paint0_linear_929_15190)"/>
<path d="M7.83523 31.0053C14.3714 37.5447 24.9711 37.5447 31.5073 31.0053C33.4077 29.1041 34.7574 26.8571 35.5528 24.466C36.4202 21.859 34.4983 19.1619 31.7485 19.1619H7.59408C4.84787 19.1619 2.92229 21.859 3.7897 24.466C4.58513 26.8571 5.93484 29.1005 7.83523 31.0053Z" fill="url(#paint1_linear_929_15190)"/>
<path d="M143.043 10.5268C144.071 11.2644 144.309 12.7132 143.57 13.7406L141.302 16.8225L140.669 17.7182L140.722 17.6918L139.113 19.9309H139.087C139.06 19.9309 139.06 19.9309 139.06 19.9309L137.821 21.6168V25.6998C137.821 26.9642 136.792 27.9915 135.5 27.9915C134.234 27.9915 133.205 26.9642 133.205 25.6998V21.6168L131.332 19.0353L127.455 13.7406C126.717 12.7132 126.928 11.2644 127.957 10.5268C128.985 9.76296 130.436 10 131.174 11.0273L132.757 13.1874L134.603 15.7162L135.394 16.8225L135.5 16.9806L137.135 14.7152L139.851 11.0273C140.59 10 142.014 9.76296 143.043 10.5268Z" fill="#351C68"/>
<path d="M126.939 23.329C128.231 23.329 129.26 24.3826 129.26 25.6734C129.26 26.9641 128.231 27.9915 126.939 27.9915H119.026C118.077 27.9915 117.18 27.412 116.837 26.5163C116.732 26.2266 116.705 25.9632 116.705 25.6734V12.3444C116.705 11.0537 117.734 10 119.026 10C120.319 10 121.374 11.0537 121.374 12.3444V23.329H126.939Z" fill="#351C68"/>
<path d="M112.924 19.0353C113.293 19.5358 113.583 20.089 113.768 20.6949C113.926 21.2217 114.031 21.8012 114.031 22.3808C114.031 22.7232 113.979 23.092 113.926 23.4081C113.662 24.7515 112.95 25.9106 111.948 26.7272C110.972 27.5174 109.732 27.9916 108.387 27.9916H100.607C99.3409 27.9916 98.3123 26.9642 98.3123 25.6998V12.3709C98.3123 11.5806 98.7079 10.8694 99.3672 10.4479C99.7101 10.2108 100.132 10.0791 100.607 10.0791H108.387C109.996 10.0791 111.473 10.764 112.502 11.8704C113.451 12.8714 114.031 14.2148 114.031 15.7163C114.031 15.8743 114.005 16.0324 114.005 16.1904C113.9 17.2441 113.53 18.2187 112.924 19.0353ZM102.901 21.3534V23.4081H108.387C108.968 23.4081 109.416 22.9339 109.416 22.3808C109.416 21.8012 108.968 21.3534 108.387 21.3534H102.901ZM102.901 14.6889V16.7436H108.335C108.361 16.7436 108.361 16.7436 108.387 16.7436C108.968 16.7436 109.416 16.2695 109.416 15.7163C109.416 15.2158 109.073 14.7943 108.598 14.6889C108.519 14.6889 108.466 14.6889 108.387 14.6889H102.901Z" fill="#351C68"/>
<path d="M94.4562 23.2764L95.2475 24.3037C96.0387 25.3047 95.8541 26.7535 94.8518 27.5174C94.4298 27.8599 93.9287 27.9916 93.4276 27.9916C92.7419 27.9916 92.0561 27.7018 91.6078 27.1223L88.0208 22.4598H85.4098V25.6998C85.4098 26.9642 84.3811 27.9916 83.1152 27.9916C81.8492 27.9916 80.8206 26.9642 80.8206 25.6998V12.3709C80.8206 12.2918 80.8206 12.2391 80.8206 12.1601C80.8206 12.0548 80.847 11.9494 80.8733 11.844V11.8177C80.8997 11.765 80.8997 11.7123 80.9261 11.6596C80.9525 11.6069 80.9525 11.5543 80.9788 11.5016C80.9788 11.5016 80.9788 11.5016 80.9788 11.4752C81.0052 11.4226 81.0316 11.3699 81.058 11.3435C81.058 11.3435 81.058 11.3435 81.058 11.3172C81.1107 11.2118 81.1898 11.1064 81.2689 11.0274C81.2689 11.0011 81.2953 10.9747 81.3217 10.9484C81.3217 10.9221 81.3481 10.9221 81.3481 10.8957C81.3744 10.8694 81.4008 10.843 81.4008 10.843C81.6909 10.5269 82.0602 10.2899 82.4558 10.1845C82.6668 10.1055 82.8778 10.0791 83.1152 10.0791H89.5242C92.7155 10.0791 95.353 12.5026 95.6958 15.5846C95.6958 15.7163 95.7222 15.848 95.7222 15.9797C95.7222 16.0587 95.7222 16.1377 95.7222 16.2431V16.2694C95.7222 16.2958 95.7222 16.3221 95.7222 16.3748C95.7222 16.4012 95.7222 16.4538 95.7222 16.5065C95.7222 16.5592 95.7222 16.6119 95.7222 16.6646C95.6958 17.0597 95.6431 17.4285 95.5376 17.7973C95.353 18.5612 95.0101 19.2988 94.5353 19.931C94.4826 20.01 94.4035 20.1154 94.3243 20.1944C94.1397 20.4315 93.9024 20.6685 93.665 20.8793C93.6122 20.932 93.5331 20.9846 93.4804 21.0373C93.3485 21.169 93.1902 21.2744 93.032 21.3798L93.0056 21.4061L93.7705 22.4071L93.9815 22.6442L94.4562 23.2764ZM89.5242 17.8763C89.7352 17.8763 89.9462 17.8236 90.1308 17.7709C90.1572 17.7446 90.2099 17.7183 90.2627 17.6919C90.5528 17.5339 90.8165 17.2968 90.9748 16.9807C91.0012 16.928 91.0012 16.8753 91.0275 16.8226C91.0539 16.7699 91.0803 16.7173 91.0803 16.6646C91.1067 16.5329 91.133 16.4012 91.133 16.2694C91.133 15.8216 90.9484 15.4265 90.6319 15.1368C90.6055 15.0841 90.5792 15.0577 90.5264 15.0314C90.5264 15.0314 90.5264 15.0314 90.5 15.005C90.4737 15.005 90.4473 14.9787 90.4209 14.9524C90.2627 14.847 90.078 14.768 89.8934 14.7153C89.8407 14.7153 89.7879 14.6889 89.7352 14.6889C89.6824 14.6889 89.6297 14.6889 89.5769 14.6889C89.5506 14.6889 89.5506 14.6889 89.5242 14.6889H85.4098V17.8763H89.1549C89.1549 17.8763 89.1549 17.8763 89.1813 17.8763C89.2077 17.8763 89.2341 17.8763 89.2341 17.8763H89.5242Z" fill="#351C68"/>
<path d="M76.0571 23.4081C77.3231 23.4081 78.3517 24.4354 78.3517 25.6998C78.3517 26.9642 77.3231 27.9916 76.0571 27.9916H67.1689C65.9029 27.9916 64.8743 26.9642 64.8743 25.6998V12.3709C64.8743 11.1064 65.9029 10.0791 67.1689 10.0791H76.0571C77.3231 10.0791 78.3517 11.1064 78.3517 12.3709C78.3517 13.6616 77.3231 14.6889 76.0571 14.6889H69.4635V16.7436H74.7647C75.0285 16.7436 75.2922 16.7963 75.5296 16.8753C75.556 16.8753 75.556 16.8753 75.556 16.9017C75.6087 16.9017 75.6615 16.928 75.7142 16.9543C76.1362 17.1387 76.4791 17.4548 76.7165 17.85C76.9275 18.1924 77.0593 18.6139 77.0593 19.0353C77.0593 19.1407 77.0593 19.2197 77.033 19.2988C76.9011 20.4578 75.9252 21.3534 74.7647 21.3534H69.4635V23.4081H76.0571Z" fill="#351C68"/>
<path d="M62.421 10.8693C63.0013 11.5542 63.1595 12.5025 62.7639 13.3454L56.5922 26.6744C55.9856 27.9652 54.324 28.413 53.1635 27.57C52.6361 27.2013 52.7416 27.4383 50.2623 22.0646C50.2096 21.9592 50.1568 21.8275 50.0777 21.7222C50.025 21.5641 49.9458 21.3797 49.8667 21.2217C49.814 21.0899 49.7612 20.9846 49.7085 20.8792C49.6294 20.7212 49.5502 20.5368 49.4711 20.3787C49.392 20.2207 49.3392 20.0626 49.2601 19.9046C49.2337 19.8782 49.2337 19.8782 49.2337 19.8519C49.2074 19.7729 49.1546 19.7202 49.1282 19.6411C49.0755 19.4831 48.9964 19.3514 48.9172 19.1933C48.8645 19.0616 48.8117 18.9299 48.7326 18.7982C48.4952 18.2977 48.2579 17.7445 47.9941 17.1914C47.4666 16.0587 46.8864 14.7679 46.227 13.3454C46.0424 12.9503 45.9633 12.5288 46.016 12.1074C46.0952 11.3435 46.5699 10.6322 47.3348 10.2898C48.4952 9.76294 49.8667 10.2634 50.3942 11.4225L50.6052 11.8966L52.3459 15.6108L52.5042 15.9533L52.5306 16.0323L53.6383 18.4031L53.7174 18.5611L54.4823 20.247L54.6933 19.8255L54.8251 19.5358L56.0384 16.9279L56.1702 16.6645L57.3307 14.1094L57.5153 13.7142L58.5967 11.4225V11.3961C58.6231 11.3698 58.6494 11.3171 58.6494 11.2908C58.6494 11.2908 58.6758 11.2908 58.6758 11.2644C58.6758 11.2381 58.7022 11.2118 58.7286 11.1854C58.7286 11.1591 58.7286 11.1591 58.7286 11.1591C58.7549 11.1327 58.7813 11.1064 58.8077 11.0537C58.8341 11.0274 58.8604 11.001 58.8868 10.9483C59.0451 10.7639 59.2297 10.5796 59.4407 10.4478L59.4671 10.4215C60.0209 10.0791 60.7067 9.97368 61.366 10.1844C61.366 10.1844 61.366 10.1844 61.3924 10.1844C61.4188 10.2108 61.4452 10.2108 61.4452 10.2108C61.4715 10.2108 61.4715 10.2371 61.4979 10.2371C61.5243 10.2371 61.5243 10.2371 61.5506 10.2634C61.577 10.2634 61.6298 10.2898 61.6561 10.2898C61.9463 10.4478 62.21 10.6322 62.421 10.8693Z" fill="#351C68"/>
</g>
<defs>
<linearGradient id="paint0_linear_929_15190" x1="1.42505" y1="23.2691" x2="28.0508" y2="23.2691" gradientUnits="userSpaceOnUse">
<stop stop-color="#713DE3"/>
<stop offset="1" stop-color="#4F46DD"/>
</linearGradient>
<linearGradient id="paint1_linear_929_15190" x1="3.57959" y1="27.5358" x2="35.7632" y2="27.5358" gradientUnits="userSpaceOnUse">
<stop stop-color="#713DE3"/>
<stop offset="1" stop-color="#FF7395"/>
</linearGradient>
<clipPath id="clip0_929_15190">
<rect width="144" height="38" fill="white"/>
</clipPath>
</defs>
</svg>
