<svg width="112" height="112" viewBox="0 0 112 112" fill="none" xmlns="http://www.w3.org/2000/svg">
<path d="M0 11.4199C0 4.7925 5.38776 -0.646563 11.9772 0.0621701C22.5745 1.20198 32.9756 3.85095 42.8605 7.94542C56.449 13.5739 68.7958 21.8238 79.196 32.224C89.5961 42.6241 97.846 54.9709 103.475 68.5594C107.569 78.4443 110.218 88.8455 111.358 99.4428C112.066 106.032 106.627 111.42 100 111.42H97.12C90.4926 111.42 85.2068 106.021 84.2755 99.4595C83.2729 92.3946 81.3835 85.4678 78.6406 78.8459C74.3629 68.5187 68.093 59.1351 60.1889 51.231C52.2848 43.3269 42.9012 37.057 32.574 32.7793C25.9521 30.0364 19.0254 28.1471 11.9604 27.1444C5.39871 26.2132 0 20.9273 0 14.2999V11.4199Z" fill="url(#paint0_linear_343_5992)"/>
<defs>
<linearGradient id="paint0_linear_343_5992" x1="-112" y1="111.42" x2="112" y2="111.42" gradientUnits="userSpaceOnUse">
<stop stop-color="#713DE3"/>
<stop offset="1" stop-color="#4F46DD"/>
</linearGradient>
</defs>
</svg>
