<svg width="20" height="20" viewBox="0 0 20 20" fill="none" xmlns="http://www.w3.org/2000/svg">
<path fill-rule="evenodd" clip-rule="evenodd" d="M15 0C17.7614 0 20 2.23858 20 5V15C20 17.7614 17.7614 20 15 20H5C2.23858 20 0 17.7614 0 15V5C0 2.23858 2.23858 0 5 0H15ZM14.6406 6.23145C14.2164 5.87791 13.585 5.9352 13.2314 6.35938L8.90039 11.5576L6.67285 9.5332C6.26423 9.16173 5.63129 9.19105 5.25977 9.59961C4.88829 10.0082 4.91859 10.6412 5.32715 11.0127L8.32715 13.7402C8.52892 13.9236 8.79731 14.0169 9.06934 13.998C9.34125 13.9792 9.59404 13.85 9.76855 13.6406L14.7686 7.64062C15.1221 7.21637 15.0648 6.58502 14.6406 6.23145Z" fill="black"/>
</svg>
