<svg width="24" height="24" viewBox="0 0 24 24" fill="none" xmlns="http://www.w3.org/2000/svg">
<path fill-rule="evenodd" clip-rule="evenodd" d="M15.93 1.92738C17.2904 2.03192 18.966 2.42647 20.1282 3.58851C21.1943 4.65453 21.6621 6.15899 21.8587 7.44105C22.196 9.64218 21.0672 11.6044 19.6956 12.9762L14.681 17.9909C14.1185 18.5533 13.3553 18.8696 12.5599 18.8698H6.71319L3.78838 21.7946C3.39785 22.1851 2.76486 22.1851 2.37432 21.7946C1.98379 21.4041 1.98379 20.771 2.37432 20.3805L5.09795 17.6569V11.1569C5.0981 10.3614 5.41435 9.59826 5.97686 9.03578L10.931 4.08168C12.1737 2.83917 13.912 1.77237 15.93 1.92738ZM10.1302 15.4528L8.71319 16.8698H12.5599C12.8249 16.8696 13.0795 16.7642 13.2669 16.5768L14.3909 15.4528H10.1302ZM15.7767 3.92152C14.5803 3.82968 13.3821 4.45889 12.345 5.49574L7.39092 10.4498C7.20351 10.6372 7.0981 10.8918 7.09796 11.1569V15.6569L15.0364 7.7184C15.427 7.32788 16.0609 7.32788 16.4515 7.7184C16.8418 8.10879 16.8416 8.74195 16.4515 9.13246L12.1302 13.4528H16.3899L18.2806 11.5621C19.4245 10.4182 20.0838 9.05909 19.8821 7.74379C19.7124 6.63695 19.3413 5.62972 18.7142 5.00258C18.0544 4.34298 16.9611 4.01254 15.7767 3.92152Z" fill="white"/>
</svg>
