<svg width="24" height="24" viewBox="0 0 24 24" fill="none" xmlns="http://www.w3.org/2000/svg">
<path fill-rule="evenodd" clip-rule="evenodd" d="M21.5041 12.2252C21.5041 11.5234 21.4414 10.848 21.3237 10.2001H12.0001V14.0292H17.3285C17.0986 15.2667 16.4012 16.3161 15.3529 17.0179V19.5017H18.5517C20.4239 17.778 21.5041 15.2403 21.5041 12.2252Z" fill="#3D82F0"/>
<path fill-rule="evenodd" clip-rule="evenodd" d="M12.0001 21.9001C14.673 21.9001 16.9138 21.0131 18.5517 19.5017L15.3529 17.0179C14.4663 17.6119 13.3324 17.9621 12.0003 17.9621C9.42194 17.9621 7.23955 16.2208 6.46075 13.8811H3.15306V16.4463C4.78216 19.6814 8.13027 21.9001 12.0001 21.9001Z" fill="#31A752"/>
<path fill-rule="evenodd" clip-rule="evenodd" d="M6.46075 13.8811C6.26275 13.2871 6.15028 12.6524 6.15028 12.0001C6.15028 11.3478 6.26248 10.7131 6.46048 10.1191V7.55389H3.15279C2.4829 8.89039 2.1001 10.4029 2.1001 12.0001C2.1001 13.5973 2.48317 15.1098 3.15306 16.4463L6.46075 13.8811Z" fill="#F9BA00"/>
<path fill-rule="evenodd" clip-rule="evenodd" d="M12.0003 6.03771C13.4534 6.03771 14.7591 6.53711 15.7843 7.51831L18.6245 4.67921C16.9096 3.08091 14.6686 2.1001 12.0001 2.1001C8.13027 2.1001 4.78189 4.31769 3.15279 7.55389L6.46048 10.1191C7.23928 7.77939 9.42194 6.03771 12.0003 6.03771Z" fill="#E64234"/>
</svg>
