<svg width="24" height="24" viewBox="0 0 24 24" fill="none" xmlns="http://www.w3.org/2000/svg">
<path d="M18.8581 21.2815H5.14803C4.73543 21.2815 4.32687 21.2002 3.94568 21.0423C3.56449 20.8844 3.21813 20.653 2.92638 20.3613C2.63462 20.0695 2.40319 19.7231 2.2453 19.342C2.0874 18.9608 2.00614 18.5522 2.00614 18.1396V11.2846C2.00614 11.0573 2.09641 10.8394 2.25711 10.6787C2.41781 10.518 2.63576 10.4277 2.86302 10.4277C3.09028 10.4277 3.30823 10.518 3.46892 10.6787C3.62962 10.8394 3.7199 11.0573 3.7199 11.2846V18.1396C3.71532 18.33 3.74889 18.5194 3.81861 18.6967C3.88833 18.8739 3.9928 19.0354 4.12587 19.1717C4.25895 19.3079 4.41793 19.4162 4.59347 19.4901C4.76901 19.564 4.95756 19.6021 5.14803 19.602H18.8581C19.2369 19.602 19.6001 19.4515 19.868 19.1837C20.1358 18.9159 20.2862 18.5526 20.2862 18.1739V11.3188C20.2862 11.0916 20.3765 10.8736 20.5372 10.7129C20.6979 10.5522 20.9159 10.462 21.1431 10.462C21.3704 10.462 21.5883 10.5522 21.749 10.7129C21.9097 10.8736 22 11.0916 22 11.3188V18.1739C21.991 19.0012 21.656 19.7916 21.0677 20.3734C20.4795 20.9552 19.6855 21.2815 18.8581 21.2815Z" fill="black"/>
<path d="M12.0033 15.8545C10.9666 15.8552 9.96497 15.4788 9.18514 14.7957C8.40531 14.1125 7.90044 13.1692 7.76461 12.1414H2.86326C2.70948 12.1425 2.55822 12.1023 2.42536 12.0248C2.2925 11.9474 2.18292 11.8356 2.10814 11.7012C2.03335 11.5668 1.99611 11.4148 2.00032 11.2611C2.00453 11.1074 2.05003 10.9576 2.13206 10.8275L6.39361 3.97247C6.56857 3.66645 6.82397 3.41417 7.13211 3.24298C7.44025 3.07179 7.78938 2.98822 8.14164 3.00134H15.865C16.2415 3.00238 16.6099 3.11031 16.9275 3.31256C17.245 3.51482 17.4986 3.8031 17.6587 4.14384L21.8746 10.9303C21.9324 11.0571 21.9584 11.1961 21.9504 11.3353C21.9424 11.4744 21.9005 11.6095 21.8285 11.7288C21.7564 11.8481 21.6564 11.948 21.537 12.0199C21.4176 12.0918 21.2825 12.1335 21.1434 12.1414H16.242C16.1062 13.1692 15.6013 14.1125 14.8215 14.7957C14.0416 15.4788 13.04 15.8552 12.0033 15.8545ZM4.40564 10.4619H8.57579C8.80305 10.4619 9.021 10.5522 9.1817 10.7129C9.34239 10.8736 9.43267 11.0915 9.43267 11.3188V11.5701C9.43267 12.2519 9.70351 12.9058 10.1856 13.3879C10.6677 13.8699 11.3215 14.1408 12.0033 14.1408C12.6851 14.1408 13.3389 13.8699 13.821 13.3879C14.3031 12.9058 14.574 12.2519 14.574 11.5701V11.3188C14.574 11.0915 14.6642 10.8736 14.8249 10.7129C14.9856 10.5522 15.2036 10.4619 15.4308 10.4619H19.601L16.1735 4.90932C16.0821 4.74937 15.9907 4.68082 15.8764 4.68082H8.14164C8.08767 4.68216 8.035 4.69763 7.98889 4.7257C7.94278 4.75377 7.90484 4.79345 7.87886 4.84077L4.40564 10.4619Z" fill="black"/>
</svg>
