<svg width="24" height="24" viewBox="0 0 24 24" fill="none" xmlns="http://www.w3.org/2000/svg">
<path fill-rule="evenodd" clip-rule="evenodd" d="M10.7071 13.2929C11.0977 13.6834 11.0977 14.3166 10.7071 14.7071L6.41421 19.0001H9.1429C9.69519 19.0001 10.1429 19.4478 10.1429 20.0001C10.1429 20.5523 9.69519 21.0001 9.1429 21.0001H4C3.44772 21.0001 3 20.5523 3 20.0001V14.8571C3 14.3049 3.44772 13.8571 4 13.8571C4.55228 13.8571 5 14.3049 5 14.8571V17.5858L9.29292 13.2929C9.68345 12.9024 10.3166 12.9024 10.7071 13.2929Z" fill="black"/>
<path fill-rule="evenodd" clip-rule="evenodd" d="M13.9999 4C13.9999 3.44772 14.4477 3 14.9999 3H19.9999C20.5522 3 20.9999 3.44772 20.9999 4V9C20.9999 9.55228 20.5522 10 19.9999 10C19.4477 10 18.9999 9.55228 18.9999 9V6.41423L14.7071 10.7071C14.3166 11.0976 13.6834 11.0976 13.2929 10.7071C12.9023 10.3166 12.9023 9.68343 13.2929 9.2929L17.5857 5H14.9999C14.4477 5 13.9999 4.55228 13.9999 4Z" fill="black"/>
</svg>
