<svg width="24" height="24" viewBox="0 0 24 24" fill="currentColor" xmlns="http://www.w3.org/2000/svg">
<path fill-rule="evenodd" clip-rule="evenodd" d="M2.15103 7.83752C1.45379 5.60635 3.63653 3.55321 5.82096 4.38537L20.6579 10.0377C22.4608 10.7247 22.4608 13.2755 20.6579 13.9625L5.82096 19.6149C3.63652 20.447 1.45379 18.3939 2.15103 16.1627L3.17252 12.8951C3.3546 12.3125 3.3546 11.6878 3.17252 11.1051L2.15103 7.83752ZM5.10904 6.25451C4.48492 6.01675 3.861 6.60336 4.06021 7.24084L5.0817 10.5084C5.13234 10.6705 5.17198 10.8353 5.20572 11.0006H8.99967C9.55195 11.0006 9.99967 11.4483 9.99967 12.0006C9.99945 12.5527 9.55182 13.0006 8.99967 13.0006H5.20474C5.17104 13.1655 5.13224 13.3301 5.0817 13.4918L4.06021 16.7594C3.861 17.3969 4.48492 17.9835 5.10904 17.7457L19.946 12.0934C19.982 12.0796 19.9911 12.0658 19.9948 12.0602C20.0018 12.0492 20.0103 12.0288 20.0104 12.0006C20.0104 11.9722 20.0019 11.951 19.9948 11.9401C19.9911 11.9344 19.982 11.9207 19.946 11.9069L5.10904 6.25451Z" />
</svg>
