<svg width="113" height="114" viewBox="0 0 113 114" fill="none" xmlns="http://www.w3.org/2000/svg">
<path d="M49.7729 7.17743C49.3351 3.42525 52.028 -0.0146929 55.8056 -0.000106129C64.7266 0.0343412 73.5491 2.16311 81.5476 6.25539C91.5839 11.3902 99.8721 19.3858 105.364 29.2311C110.856 39.0764 113.305 50.3292 112.402 61.5665C111.499 72.8038 107.284 83.5209 100.29 92.3625C93.2954 101.204 83.8365 107.773 73.1089 111.239C62.3813 114.705 50.8669 114.912 40.0218 111.834C29.1766 108.755 19.4878 102.53 12.1806 93.9456C6.35695 87.104 2.25443 79.0084 0.167306 70.335C-0.716486 66.6622 2.01118 63.2498 5.76336 62.812C9.51554 62.3743 12.8595 65.0862 13.8819 68.7228C15.5661 74.714 18.5293 80.2989 22.5977 85.0786C28.1513 91.6029 35.5148 96.334 43.7571 98.6734C51.9994 101.013 60.7503 100.856 68.9033 98.2216C77.0562 95.5875 84.245 90.595 89.5606 83.8754C94.8761 77.1558 98.0797 69.0108 98.7662 60.4704C99.4527 51.9301 97.5912 43.378 93.4172 35.8955C89.2433 28.4131 82.9442 22.3365 75.3167 18.434C69.7288 15.575 63.6118 13.9771 57.3938 13.7172C53.6195 13.5595 50.2106 10.9296 49.7729 7.17743Z" fill="url(#paint0_linear_439_8585)"/>
<defs>
<linearGradient id="paint0_linear_439_8585" x1="-1.41455" y1="56.9995" x2="112.585" y2="56.9995" gradientUnits="userSpaceOnUse">
<stop stop-color="#713DE3"/>
<stop offset="1" stop-color="#FF7395"/>
</linearGradient>
</defs>
</svg>
