<svg width="57" height="57" viewBox="0 0 57 57" fill="none" xmlns="http://www.w3.org/2000/svg">
<path d="M0 6.47379C0 2.69616 3.07319 -0.408534 6.82365 0.0437008C11.9651 0.663663 17.0088 1.98272 21.813 3.97266C28.7285 6.83718 35.0122 11.0358 40.3051 16.3287C45.598 21.6216 49.7966 27.9053 52.6611 34.8208C54.6511 39.625 55.9701 44.6687 56.5901 49.8101C57.0423 53.5606 53.9376 56.6338 50.16 56.6338C46.3824 56.6338 43.3751 53.5528 42.7811 49.8221C42.2486 46.4776 41.3245 43.1993 40.0225 40.0559C37.8454 34.8001 34.6545 30.0246 30.6319 26.0019C26.6092 21.9793 21.8337 18.7884 16.5779 16.6113C13.4345 15.3093 10.1562 14.3852 6.81166 13.8527C3.08102 13.2587 0 10.2514 0 6.47379Z" fill="url(#paint0_linear_439_8599)"/>
<defs>
<linearGradient id="paint0_linear_439_8599" x1="-57" y1="56.6338" x2="57" y2="56.6338" gradientUnits="userSpaceOnUse">
<stop stop-color="#713DE3"/>
<stop offset="1" stop-color="#4F46DD"/>
</linearGradient>
</defs>
</svg>
